<svg version="1" xmlns="http://www.w3.org/2000/svg" width="682.667" height="682.667"
     viewBox="0 0 512.000000 512.000000">
    <path
        d="M246.5 18.1c-.3.4 0 1.1.6 1.5.8.5.9.3.4-.6-.5-.9-.4-1.1.4-.6 1.6 1 .4 2.6-1.4 1.9-1.7-.6-2 .8-.5 2.3 1.1 1.1-7.8 1.3-9.5.2-.6-.4-1.1.2-1.2 1.3-.1 1.2.3 1.7 1 1.3.9-.5.9-.4.1.6-.7.6-2.8 1.2-4.8 1.2s-3.9.5-4.2 1c-.4.6-1 .5-1.5-.3-.6-.9-.7-.2-.3 1.8.6 2.8.3 3.3-1.9 3.8-1.9.5-2.4 1.1-1.9 2.3.5 1.5.4 1.5-1.2.3-1.5-1.2-1.7-1.2-1.4 0 .2.8-.5 1.4-1.6 1.4-1.7 0-2.5 1.4-2.8 5.3-.1.6-.8 1.1-1.7 1-1.1-.2-1.6.4-1.5 1.9.1 2.5-1.1 3.1-2 1-.2-.6-.4-.2-.2 1.1.1 1.2.7 2.7 1.4 3.4.8.8.7 1.5-.6 2.5-.9.8-1.1 1.1-.3.7 1.1-.5 1.3-.3.8.9-.4 1-.1 1.7.6 1.7.6 0 .1.7-1.1 1.6-1.2.8-2.2 2.1-2.2 2.7 0 .7.5.4 1.1-.6 1.3-2.3 2.5-2.2 2.5.3 0 1.1-.6 2-1.3 2-.6 0-1.4.4-1.7.9-.4.5.4.7 1.6.4 2.3-.5 2.3-.5.3 1.1-1.1 1-1.4 1.5-.7 1.1.6-.3 1.2 0 1.3.7 0 .7.2 2.1.4 3.1.2.9 0 1.5-.5 1.2-.4-.3-.6.4-.3 1.5s1.4 2 2.4 2c1.2 0 1.9.7 1.9 2 0 1.1.5 2 1 2 .6 0 1 .5 1 1.1 0 .5-.6.7-1.2.3-.8-.5-.7 0 .2 1.1.9 1.1 1 1.6.3 1.1-1-.5-1.3.3-1.1 3.1.1 3.5.4 3.9 2.7 3.7 1.4-.1 1.8.1.8.3-1.5.4-1.5.6-.3 1.9 1.7 1.7 3 1.9 2 .2-.5-.7-.3-.8.5-.4.7.5 1 1.4.7 2.2-.5 1.2 1 1.9 3.5 1.6.4-.1.5.8.2 1.8-.4 1.6 0 2 2.1 2 1.8 0 2.4.4 2 1.4-.4 1.1.1 1.4 2.4 1.1 2.9-.4 4.9 1.4 4.3 3.8-.1.5.3.6.9.2.5-.3 1-.1 1 .5 0 .7.5.8 1.3.3 1.6-1 2.8-1.1 5.4-.1 1.2.4 2.4.4 2.7 0 .3-.5 3-.5 6-.2s6.4.2 7.5-.2c1.4-.5 2.1-.3 2.1.5 0 .7 1.1.1 2.3-1.3 3.6-4.1 7.9-7 9.1-6.3.7.5.7.2-.1-.8-.8-1-.9-1.9-.1-2.9.8-1.2.9-1.2.4.2-.7 2.2 1 2.4 1.8.2.3-.9 1.2-1.4 2-1.1 1 .4 1.3-.1 1.1-1.8-.1-1.4.4-2.6 1.3-3 1-.4 1.2 0 .8 1-.3.9-.2 1.3.4 1 .6-.3 1-1.3 1-2.1 0-.9.5-1.2 1.1-.8.8.4.8 0 0-1.5-1.4-2.5-.3-2.8 1.5-.4 1 1.4 1.2 1.5 1.2.3-.2-3.4.3-5.1 1.2-4.5.6.4.7 1.1.4 1.7-.4.7-.2.8.5.4.6-.4.9-1.2.6-1.7-.4-.5-.2-.9.4-.9.6 0 .8-.8.5-1.8-.5-1.4-.3-1.4 1.1.3 1.1 1.2 1.5 1.4 1.2.5-.2-.8.7-2.9 2.2-4.5 1.4-1.7 1.9-2.4 1.1-1.8-1.8 1.6-3.8 1.7-2.3.2.6-.6.9-1.8.6-2.6-.3-.8.2-2 1.2-2.7 1.4-1 1.5-1.5.5-2.1-.9-.5-1.1-.4-.6.3.4.7.1 1.2-.9 1.2-1.2 0-1.5-.5-1-1.8 1.7-3.9 1.8-5.5.6-4.7-1 .6-1.1.3-.2-1.3 1.3-2.5 1.4-3.5.2-2.7-.6.3-.6-.6-.1-2.4.6-2.1.5-3.1-.3-3.5-.8-.3-.8-.5.1-.5.7-.1 1-.6.6-1.3-.5-.8-.2-.9 1-.5 1 .4 1.5.3 1.1-.3-.3-.6-1.3-1-2.2-1-1.1 0-1.3-.5-.8-1.8.8-1.8.8-3.4.1-6.7-.2-1.1-.5-2.4-.5-2.9-.1-.5-.9-.2-1.8.5-1 .7-1.5 1-1.1.5 1-1.2-1-4.6-2.7-4.6-.7 0-1.7-.5-2.1-1.2-.4-.7-.3-.8.4-.4s1.2.2 1.2-.3c0-1.5-2.7-1.4-3.3.1-.3.7-.4-.2-.3-2 .2-1.9-.1-3.2-.8-3.1-2.2.3-3.9-.1-3.3-.7 1.6-1.6-2.3-3.2-7.2-3-3.3.2-5.5-.2-6.2-1.1-.6-.7-1.7-1.3-2.4-1.3-.8 0-1.1-.8-.8-2.1.5-1.9.2-2-7.6-1.8-4.5.1-8.4.5-8.6 1zm-18.2 11.4c-.3.9-.8 1.4-1 1.1-.3-.3-.2-.9.2-1.5.9-1.6 1.5-1.3.8.4zm-9.3 10c0 1.2-1.9 1.2-2.3 0-.4-.9-.1-1.2.9-.8.7.3 1.4.7 1.4.8zm13.5 60.5c.3.5.1 1-.4 1-.6 0-1.1-.5-1.1-1 0-.6.2-1 .4-1 .3 0 .8.4 1.1 1zm6.5 4.2c0 .6-.6.5-1.5-.2-.8-.7-1.5-1.4-1.5-1.6 0-.2.7-.1 1.5.2.8.4 1.5 1.1 1.5 1.6z"/>
    <path
        d="M242.3 21.3c0 .8.6 1.4 1.4 1.4.9 0 1-.4.2-1.4-.6-.7-1.2-1.3-1.4-1.3-.1 0-.2.6-.2 1.3zM237.6 21.9c.9.9 3.4.9 3.4.1 0-.5-.9-.8-2-.7-1 .1-1.7.3-1.4.6zM266.5 21.8c.9.9 9.4.9 8.9 0-.2-.3-2.5-.6-5-.6s-4.3.3-3.9.6zM222 32.2c0 .4.4.8.9.8.6 0 1.2-.4 1.5-.8.3-.5-.1-.9-.9-.9s-1.5.4-1.5.9zM295 41.9c0 .6.4 1.3 1 1.6.6.3.7-.1.4-.9-.7-1.8-1.4-2.1-1.4-.7zM163.6 69.1c.2.3 1.4.5 2.7.4 1.4-.2 2.4.2 2.4 1.1 0 .7-.4 1.1-.9.8-1.7-1.1-5.8-1.1-5.1-.1.4.6 0 .8-1 .4-1.2-.4-1.5-.1-1.2 1.5.4 1.8 0 2-3 1.6-1.9-.2-3.5-.1-3.5.4 0 .4-.8.5-1.7.1-1.6-.5-1.5-.4.1.9 1.5 1.2 1.6 1.7.6 2.3-.8.5-1.5.4-1.8-.3-.2-.8-.7-.8-1.7.1-.9.8-1 1.6-.3 2.5.8.9.7 1.1-.6.6-.9-.3-1.6-1.4-1.6-2.3 0-1.2-.2-1.3-.9-.3-.4.8-1.1 1.3-1.5 1.3-2.3-.3-3 0-1.7.8.9.6 1 1.1.2 1.5-.6.4-.8 1.3-.4 1.9.4.7 0 .6-1-.2-1.5-1.2-1.7-1.1-1.7.3 0 1.4-1.1 2-3.1 1.8-.4-.1-.6.6-.5 1.6.1 1.2-.5 1.6-1.8 1.4-1.8-.3-1.8-.2-.5 1.4.8 1.1.9 1.5.2 1-.9-.4-1.3-.1-1.3 1 0 1.4-.3 1.4-1.5.4-1.3-1.1-1.4-1-.9.4.3.9 1 1.6 1.5 1.6 1.8 0 .8 3.2-1.1 3.7-1.1.3-2 1-2 1.5s-.5.6-1.2.2c-.7-.4-.8-.3-.4.5.6.9 1.1.9 2.2 0 .8-.6 1.7-.9 2.1-.5.3.3.1.6-.6.6s-1 .4-.6.9c.3.6-.5.8-1.7.6-2.1-.4-2.3 0-2.5 3.5-.1 2.6.3 3.8 1 3.3.6-.4.7-.1.2.7-1.2 2-1.4 9.9-.2 10.7.6.3.7.1.3-.5-.4-.7-.2-1.2.3-1.2.6 0 1.1.9 1.1 2 0 1.3.7 2 2 2 1.2 0 2 .7 2 1.6 0 1.4-.3 1.4-1.5.4-1.3-1.1-1.4-1-.9.4.3.9 1.1 1.6 1.6 1.6.6 0 .8 1.3.6 3-.4 2.6-.1 3 1.9 3 1.6 0 2.3.6 2.3 2s.7 2 2.1 2c1.1 0 1.8.4 1.5.8-.2.4 0 1.4.6 2.2.8 1.2.9 1.2.4-.3-.7-2.1.1-2.2 2-.2.9.8 1.1 1.5.5 1.5-.6 0-1.1.4-1.1 1 0 .5 1 1 2.3 1 1.2 0 2.9.5 3.7 1.1 1.3.9 1.2 1-.2.5-1.2-.3-1.8 0-1.8.9 0 .8.6 1.4 1.3 1.3.6-.2 1.2.4 1.1 1.3-.1.9.4 1.6 1.1 1.6.7 0 1.1-.6.8-1.4-.3-.7-.1-1.3.4-1.3s1 .7 1.1 1.5c.1.8.3 2.2.4 3 .1.8.8 1.7 1.5 1.9.9.4 1.2.1.8-.7-.4-.6 0-.3.9.7.8 1 1.3 2.3 1 2.7-.3.5.5.9 1.7.9 2.4 0 4.8 2.6 4.9 5.2 0 1 .5 1.8 1.1 1.8.5 0 .8-.4.4-.9-.3-.5-.1-1.3.5-1.6.6-.4 1-.3.9.2-.1.4-.1 1.5 0 2.3.1 1.3.2 1.3 1.1 0 .5-.8 1-1 1-.5 0 .6-.5 1.6-1.1 2.2-.8.8-.8 1.3 0 1.7.6.4 1.1.3 1.1-.3s.6-.8 1.4-.5c.8.3 1.2 1.2 1 1.9-.3.7.4 1.6 1.6 2 1.2.4 1.9 1.3 1.8 2.3-.2 1.1.4 1.7 1.9 1.7 1.2 0 2.5.4 3 .9s.3.6-.4.2c-.8-.4-1.3-.1-1.3.8 0 1 .6 1.3 1.7.9 1.2-.5 1.5-.2 1.1 1.3-.4 1.5 0 2 1.9 2.2 3.3.3 4.3 1 3.7 2.5-.3.9.7 1.3 3.1 1.3 1.9 0 3.5-.5 3.5-1.1 0-.6.3-.7.8 0 1.1 1.5 6.9 1.3 6.9-.3 0-.7-.6-1.1-1.4-.8-.7.3-1.3.1-1.3-.4 0-.6 1.1-1 2.5-1s2.5-.5 2.5-1c0-.6-.6-1-1.2-1-.9 0-.8-.3.2-.9.8-.6 1.8-.7 2.2-.5.4.3.8.1.8-.5s.8-.8 1.8-.4c1.4.5 1.3.3-.3-1.1-1.1-.9-1.5-1.6-1-1.5 2.5.3 3.6-.2 2.9-1.4-.5-.8-.2-.7.9.2 1 .8 2 1.1 2.4.7.3-.3.1-.6-.5-.6s-.9-.7-.5-1.6c.3-.8 1.2-1.3 1.9-1 .8.3 1.3.2 1.2-.2-.3-1.4 1.4-4.2 2.3-3.6.5.3.9.1.9-.5 0-.5-.5-1.1-1.2-1.3-.9-.3-.9-.6 0-1.2.7-.4 1.2-.3 1.2.3s.7.8 1.5.5c1.1-.5 1.3-1 .5-1.9-.8-1-.8-1.5.1-2.1.8-.4.9-.3.5.4s-.3 1.2.3 1.2c1.2 0 3.3-3.5 2.5-4.2-.2-.3.7-.5 2.1-.4 1.3 0 2.5-.2 2.5-.7v-1.8c0-.5-.4-.7-1-.4-.5.3-1 .1-1-.4 0-1.5 1.7-1.4 2.6.1.6.9 1 .5 1.4-1.2.4-1.7 1.2-2.4 2.4-2.2 1.4.3 1.7-.2 1.2-2-.3-1.3-.3-1.7 0-1.1.7 1.6 3.4-.8 3.4-3 0-.8.7-1.8 1.6-2.1.8-.3 1.3-.2 1 .2-.2.4.3.8 1.3.8s1.8-.5 1.8-1.1c.1-.5.3-2.5.6-4.3.2-1.7 0-3.2-.5-3.2s-.6-.5-.3-1c.3-.6-.3-1-1.4-1-1.5 0-1.9-.4-1.4-1.7.5-1.3.2-1.5-1.1-1-1 .4-1.5.3-1.1-.3.3-.6.2-1-.3-1s-.9-.7-.9-1.6c0-1.4.2-1.4 1.5.2 1.4 1.9 1.5 1.9.8 0-.3-1-.1-2.6.6-3.4.7-.9.8-1.3.2-.9-.6.3-1.7-.5-2.4-1.8s-1.7-2.2-2.2-1.9c-.5.3-.1 1.2.9 1.9 1.7 1.3 1.7 1.4-.4 1.2-1.2 0-2.1-.4-2.1-.7.2-1.9-.3-3-1.1-2.6-.5.3-1.4-.1-2.1-.9-.9-1-.9-1.5-.1-1.5.6 0 1.1.5 1.1 1.1 0 .5.5.7 1 .4 1.6-1 .3-2.2-3-2.9-1.7-.3-2.9-1-2.5-1.6.3-.5-.5-2-1.7-3.2-1.3-1.3-2.3-2.6-2.3-3.1 0-.9-1.5-1.1-2.3-.1-.4.4-.1.4.7-.1 1-.5 1.2-.4.7.4-1 1.6-2.6.4-1.9-1.5.5-1.3.1-1.5-1.8-.9-2.3.7-2.3.6-.5-.7 1.5-1.2 1.6-1.7.6-2.3-.9-.5-1.1-.4-.6.3.4.7.2 1.2-.3 1.2-.6 0-1.1-.7-1.1-1.6 0-.8-.4-1.2-1-.9-.5.3-1-.1-1-.9 0-1.4-1.8-2.1-4.3-1.7-.4 0-.6-.2-.6-.6.4-2.3-.3-3.5-1.6-2.9-.8.3-1.4.2-1.4-.2.5-2.9-.4-5.2-2.1-5.7-1.1-.3-2-1.3-2-2.1s-1.3-1.7-3-2.1c-2.1-.4-3-1.1-3-2.4 0-1.2-.7-1.9-2-1.9-1.1 0-2-.7-2-1.5s-.7-1.5-1.6-1.5c-.8 0-1.2-.5-.9-1 .4-.6 1.1-.8 1.6-.5.5.4.9.1.9-.4 0-1-4-1.6-8.1-1.2-1.8.2-3.3-2.5-2.3-4.1.4-.6-.3-.5-1.5.1-1.8 1-2.1.9-2.1-.6 0-1.6-1-1.8-6.9-1.8-3.8 0-6.8.2-6.5.6zm36.2 19.4c-.3.3-.9-.2-1.2-1.2-.6-1.4-.5-1.5.5-.6.7.7 1 1.5.7 1.8zm3.6 2.3c.3.5-.1.9-.9.9s-1.2-.4-.9-.9c.3-.4.7-.8.9-.8.2 0 .6.4.9.8zM224 112c0 .5-.2 1-.4 1-.3 0-.8-.5-1.1-1-.3-.6-.1-1 .4-1 .6 0 1.1.4 1.1 1zm-11 56c0 .5-.5 1-1.1 1-.5 0-.7-.5-.4-1 .3-.6.8-1 1.1-1 .2 0 .4.4.4 1zm-29.3 10.5c0 .8-.4 1.2-.9.9-.5-.3-.6-1-.3-1.5.9-1.3 1.2-1.1 1.2.6zM208.5 69.1c-.4.6-.4 1.3-.1 1.6.3.4.6.1.6-.6s.5-.9 1.2-.5.8.3.4-.4c-.9-1.5-1.3-1.5-2.1-.1zM327.3 69.9c-.9.9-2.1 1.6-2.7 1.6-.6 0-1 .8-.8 1.7.1 1-.8 1.8-2.5 2.3-1.6.4-2.2 1-1.5 1.2 2.2.8 1.2 2.5-1.3 2.1-2.1-.4-2.3-.3-1.4 1.3.7 1.5.6 1.9-.6 1.9-.9 0-2 1-2.5 2.2-.5 1.3-.9 1.8-.9 1.1-.1-.7-.8-1-1.6-.7-1.3.5-1.3.9-.3 2.2 1 1.2 1 1.4.1.8-.7-.4-1.3-.2-1.3.3 0 .6-.7 1.1-1.5 1.1-.9 0-1.5.9-1.5 2.2 0 1.9-.2 2-1 .8-.7-1.1-1-1.1-1-.2 0 .7-.4 1.1-.9.8-.5-.4-.7.3-.4 1.4.3 1.2.2 2-.3 1.9-2.2-.4-3.3.2-2.8 1.6.4 1.1 0 1.5-1.6 1.5-1.5 0-2 .5-1.7 1.4.3.8-.1 1.7-.9 2-.8.3-1.4 0-1.4-.7 0-.8-.4-.7-1 .3-.5.9-.5 1.7.1 2.1.5.3-.2 1.1-1.6 1.7-1.5.7-2.5 2-2.6 3.4-.1 1.7-.2 1.9-.6.5-.6-2.3-2.3-1.2-2.3 1.5 0 1.8-.2 1.9-1.7.7-1.1-1-1.4-1-.9-.2.4.9.1 1.3-1 1.3-1.3 0-1.4.3-.5 1.3 1.3 1.6.5 2.8-1.4 2.1-.7-.3-1.5.4-1.8 1.6-.3 1.2-1 1.9-1.5 1.6-1.1-.7-4.9 3.5-5.4 6-.2 1.1-1.7 2.6-3.4 3.4-1.9.9-2.9 2.1-2.6 2.9.3.8-.1 1.2-.9.9-.8-.3-1.3-1.1-1.1-1.7.1-.7-.2-1-.7-.7-.5.3-.8 1.4-.6 2.4.3 1.9-1.2 4.2-2.7 4.2-.5 0-.6-.6-.2-1.3.4-.7.3-.9-.2-.4-.9.9-1 1.3-1.3 4.3-.1 1-.7 1.4-1.6 1-.9-.3-1.5 0-1.5.8s-.9 1.6-2.1 1.9c-1.2.3-1.8 1-1.4 1.7.4.7-.2 1.4-1.4 1.7-1.2.3-2.1 1.3-2.1 2.4 0 2.4-1.7 2.5-2.3.1-.3-1.2-.5-1-.7.8-.1 1.4-.2 2.9-.1 3.3.1.4-.7.7-1.6.5-1-.2-1.8.3-1.8 1.2 0 .8-.6 1.6-1.2 1.6-2.6.3-2.8.6-.8 1.4 1.8.8 1.7.9-.6.9-2.9.1-5.4 2.4-4.4 4.1.3.6-.3 1-1.4 1-1.2 0-2.1.6-2.1 1.4 0 .8-.7 1.6-1.5 2-.8.3-1.5 1.2-1.5 2.1 0 .9-.9 1.5-2.1 1.5-1.5 0-1.9.5-1.5 1.5.4 1-.1 1.5-1.4 1.5-1.5 0-2 .7-2.1 2.7 0 1.6-.3 2.2-.6 1.5-.8-2-2.6-1.4-2 .7.4 1.6 0 1.8-1.8 1.5-1.8-.3-2.4.1-2.7 1.8-.2 1.5-.9 2.2-2 2-1.2-.2-1.6.3-1.3 1.7.2 1.3-.1 1.8-1 1.5-.7-.3-1.6-.1-2 .5-.3.6-.1 1.1.6 1.1 2.7 0-.4 1.4-3.4 1.6-4.6.3-4.7.3-4.7 1.6 0 .6-.7 1.9-1.6 2.9-1.2 1.3-1.2 1.9-.3 2.5.7.4 1 .3.5-.4-.3-.6-.1-1.4.5-1.8.8-.5 1 .3.7 2.5-.5 3.2.5 4.3 1.6 1.6.3-.8 1.1-1.5 1.8-1.5.9 0 .9.3-.2 1.1s-1.2 1.2-.2 1.6c.6.2 1.2 1.3 1.2 2.4 0 1.2.7 1.9 2 1.9 1.1 0 2 .5 2 1.1 0 .5-.5.7-1.2.3-.7-.4-.8-.3-.4.5.4.6 1.1.9 1.6.6.9-.6 3.2 1.9 2.4 2.7-.2.3.3.8 1.2 1.2 1.2.4 1.5.2 1.1-.9-.4-.8-.2-1.7.4-2 .5-.4.9-.3.8.2-.4 2.3.2 6.4.9 5.9.4-.2 1.4 0 2.2.5 1.3.8 1.3 1 0 1.9-1 .7-1.1 1-.2 1.1.6.1 1.7.3 2.2.4.6.1 1.5.3 2.1.4.5 0 .7.6.4 1.1-.4.6.7 1.5 2.4 2.1 1.7.6 2.8 1.5 2.5 2-.3.5 0 .9.7.9.6 0 .9.8.7 1.8-.3 1.1 0 1.9.8 1.9.7 0 1.1-.3.9-.7-.2-.3.1-1.2.7-2 .8-1.2.9-1.2.4.2-.3 1-.1 2 .5 2.4.7.4.6 1-.1 1.9-.9 1-.7 1.3.7 1.1 2.3-.4 4.5 1.6 2.9 2.6-.6.5-.1.8 1.2.8 1.5 0 2.1.4 1.6 1.2-.5.8-.2.9.9.5.9-.3 1.9-.1 2.3.5.4.6.3.8-.4.4-.6-.3-1.3-.2-1.7.4-.4.6.4 1 1.9 1 1.4 0 2.8.4 3.1 1 .3.6-.1.7-1 .4-1-.4-1.4-.2-1 .8.6 1.5 8.1 1.8 10.3.4.7-.4 1.2-.3 1.2.2 0 1.1 3 .9 4.9-.2.8-.5 1.7-.3 2.2.5.5.8.9 1.2 1 .9.8-4.4 1.2-5.5 2.7-6.6.9-.7 2.3-1.4 3-1.4.6 0 1.2-.5 1.2-1.1 0-.5-.6-.7-1.2-.3-.7.4-.9.3-.5-.1.7-.9 2.8-1.5 5.4-1.7.9-.1 1-.5.2-1.5-.9-1-.8-1.3.1-1.3.7 0 1-.7.6-1.6-.6-1.4-.4-1.5.9-.4s1.6 1.1 1.3-.1c-.2-.8.7-1.5 2-1.7 1.2-.2 2.2-.8 2.2-1.4 0-.6-.8-.7-1.7-.3-1.3.4-1.5.3-.7-.5.6-.6 2.1-1.2 3.3-1.3 1.3-.1 2.1-.8 2.1-2 0-2.9 2.2-4.7 5.6-4.7.8 0 1.3-.4 1-.8-.2-.4.4-1.9 1.5-3.2 1.6-2.1 1.8-2.2 1.3-.5-.5 1.9-.5 1.9.6.2.7-1.1 1.3-2.6 1.5-3.5.1-1 .8-1.6 1.4-1.5.6.2 1.1-.5 1.1-1.5 0-1.3.2-1.4.9-.4.6 1 1.1.9 2.2-.4.9-1.2 1-1.5.2-1-.7.4-1.3.2-1.3-.3 0-.6.9-1.1 2-1.1 2.1 0 4.3-3.7 3.2-5.4-.3-.5 0-.6.6-.2.7.4 1.2.2 1.2-.4 0-.6.4-.9.9-.6.5.4 1.6.3 2.5 0 1.5-.6 1.5-.8-.1-2-1.7-1.3-1.7-1.4 0-.8 1.6.6 2.2-.5 1.8-2.9-.1-.5.3-.6.9-.2.6.3.8 1 .6 1.4-.3.4.1.8.7.8.8 0 1.2-1.1 1.1-2.8-.1-2.1.2-2.6 1.4-2.2 1.1.5 1.3.3.7-.7-.5-.9-.4-1.1.4-.6 1.7 1.1 4.1-1.2 4.1-4 0-1.3.4-2.4 1-2.4.5 0 .7.8.4 1.7-.5 1.6-.4 1.6.9 0 .9-1.1 1.3-2.6 1.1-3.5-.3-1 .1-.6.9.7 1.1 1.8 1.5 2 2 .8.3-.8 0-2-.6-2.6-1.1-1.1 0-1.6 3.1-1.2.7.1 1.2-.9 1.2-2.3 0-1.6.7-2.7 2.1-3.1 1.4-.5 1.8-1.2 1.4-2.3-.5-1.4-.4-1.5.6-.5 1.9 1.9 3.4 1.6 1.8-.4-1-1.1-1-1.4-.1-.9.8.5 1.2.1 1.3-1.1 0-1 .3-1.3.6-.6.7 2 2.3 1.5 2.3-.6 0-1.1.5-2.3 1-2.6.6-.4.8-1 .6-1.4-.3-.4.1-.8.9-.9.8-.1 2.2-.3 3-.4.8-.1 1.4-.8 1.3-1.7-.2-1 .6-1.7 2-1.9 1.2-.2 2.2-.7 2.2-1.2s-.8-.7-1.7-.3c-1.2.3-1 0 .5-1.1 1.2-1 2-2.2 1.6-2.7-.3-.5-.2-.9.3-.8.4.1 1.8.1 3.1 0 1.9-.1 2.1-.4 1.2-2.1-.9-1.6-.8-1.8.5-1.4 1.4.6 2-.6 1.6-2.9-.1-.5.3-.6.8-.2.6.3.9 1.1.8 1.8-.2.7.1.2.7-1.1.6-1.2 1.6-2 2.3-1.8.7.3 1.2.2 1.2-.2-.1-.4-.1-1.5 0-2.6.1-1.4.4-1.6 1.4-.7.8.6 1.7.8 2 .4.4-.3-.1-1.2-1.1-2-.9-.8-1.2-1.2-.7-1 1.5.7 5.7-1.2 5-2.2-.3-.5-.1-1.2.5-1.6.6-.4.7-1.1.4-1.7-.4-.7-.2-.8.5-.4.6.4.9 1.1.7 1.5-.3.4.1.8.9.8 1 0 1.1-.5.6-1.6-.6-1-.4-2.1.5-2.9.8-.7 1.4-.8 1.4-.2 0 .5.5 1 1 1 .6 0 1-.7 1-1.5s-.6-1.5-1.2-1.5c-1 0-1-.2 0-.9.8-.4 1.3-1.1 1.3-1.5-.4-3.1.1-4.6 1.8-4.6 1.5 0 1.8-.7 1.7-4.3 0-2.9.4-4.1 1.3-3.9.7.1 1-.2.6-.8-.3-.6-1-.8-1.5-.5-.5.3-1.1.1-1.5-.5-.4-.6-1.1-.8-1.6-.5-.8.6-1.1-1.2-1.2-7.2 0-1.9-.2-2.1-2.1-1.1-2 1-2 1-.6-.7s1.3-1.8-.7-1.3c-1.6.4-2.3.2-2.4-.8-.1-.8-.3-1.9-.4-2.4-.1-.6-.3-2.4-.4-4.1-.1-2.3-.5-3-1.6-2.5-1 .4-1.5-.1-1.5-1.4 0-1.8-2.1-2.6-5.3-2.1-.5.1-.6-.3-.3-.8.4-.5 1.5-.8 2.6-.6 1.2.2 1.8 0 1.4-.6-.3-.6-.8-.8-1.1-.5-.9.9-4.3-1.4-4.3-2.9 0-1.1-1.2-1.5-4.2-1.6-2.4-.1-4.7-.1-5.2 0s-.3-.6.5-1.5c.9-1.2.9-1.5.2-1-.8.4-1.3.2-1.3-.4 0-.7-.7-1-1.5-.7-.8.4-1.7.1-2.1-.5-.4-.6-.3-.8.2-.5.6.3 1.6.2 2.4-.4 1.1-.6.5-.9-2-1-1.9 0-4.5-.2-5.7-.5-1.3-.2-2.3.1-2.3.7 0 .5.5.7 1.2.3.7-.5.8-.3.4.5-.6.9-1.2.9-2.5-.3-2-1.9-3.1-2-3.1-.5 0 .5.5.7 1.2.3.7-.4.8-.3.4.5-.6.8-1.1.9-2 .1-2.3-1.8-7.6-1.9-9.3-.1zm3.3.3c.4.6.3.8-.4.4-.6-.3-1.5.2-2.1 1.1-.6 1-1.1 1.3-1.1.7 0-.9 1.9-3.4 2.6-3.4.2 0 .6.5 1 1.2zm14.4.8c0 .5-.5 1-1.1 1-.5 0-.7-.5-.4-1 .3-.6.8-1 1.1-1 .2 0 .4.4.4 1zm-18.9 2.7c1.3 1.6 1.2 1.7-.3.4-1.7-1.3-2.2-2.1-1.4-2.1.2 0 1 .8 1.7 1.7zM279 122.2c0 .4-.4.8-.9.8-.6 0-1.2-.4-1.5-.8-.3-.5.1-.9.9-.9s1.5.4 1.5.9zm-57.6 93.7c.3.5-.1 1.1-.9 1.4-.9.4-1.2.1-.8-.9.6-1.6 1-1.7 1.7-.5z"/>
    <path
        d="M374.1 92.6c0 1.1.3 1.4.6.6.3-.7.2-1.6-.1-1.9-.3-.4-.6.2-.5 1.3zM206.6 92.8c-.3.5.1.9.9.9s1.2-.4.9-.9c-.3-.4-.7-.8-.9-.8-.2 0-.6.4-.9.8zM209.6 95.9c-.4.5-.2 1.2.3 1.5.5.4 1.2.2 1.5-.3.4-.5.2-1.2-.3-1.5-.5-.4-1.2-.2-1.5.3zM268.6 102.9c-2 2.1-2.4 3.1-1.5 3.6.7.5 1 .4.6-.2-.8-1.3 3.7-5.6 4.8-4.6.4.5.5.2.1-.5-.9-1.6-.8-1.6-4 1.7zM243 108.1c0 .5.5.7 1 .4.6-.3 1-.8 1-1.1 0-.2-.4-.4-1-.4-.5 0-1 .5-1 1.1zM248 107.4c0 .2.7.7 1.6 1 .8.3 1.2.2.9-.4-.6-1-2.5-1.4-2.5-.6zM383.6 109.8c-.2.4-.1 1.4.4 2.2.7 1.1.9.9.7-.8-.1-2.4-.3-2.6-1.1-1.4zM269 127.4c.7.7 1.4.6 2.1-.1.9-.9.7-1.2-.9-1-1.4.1-1.8.5-1.2 1.1zM107 131c.8.5 2 1 2.5 1 .6 0 .3-.5-.5-1s-1.9-1-2.5-1c-.5 0-.3.5.5 1zM393.4 131.3c.5 1.4.1 1.8-1.7 1.5-1.7-.2-2.3.3-2.5 2-.2 1.6-.8 2.2-1.8 1.8-.9-.3-1.4.1-1.4 1.3 0 1-.8 2.2-1.7 2.6-1.5.5-1.6.4-.5-.6 1.5-1.6 1.6-2.9.2-2.9-.5 0-1 .3-.9.7.1.5-.2 1.8-.6 3.1-.6 1.9-1 2-2.3 1-1.1-.9-1.3-.9-.9-.1.4.6.3 1.4-.3 1.8-.6.4-.8 1.1-.4 1.6.3.6-.3 1.3-1.5 1.6-2.4.6-2.7 1.8-.8 2.7.6.3 0 .4-1.5.1-2.4-.5-2.8-.2-2.8 1.9 0 2-.4 2.4-2.1 2.1-1.6-.3-1.9 0-1.4 1.5.4 1.2.2 2-.4 2-.6 0-1.1-.8-1.2-1.8 0-1.4-.2-1.3-.9.4-.4 1.2-1.5 2.4-2.4 2.7-.9.4-1.6 1.8-1.6 3.1 0 1.8-.4 2.4-1.4 2-.9-.3-1.7.3-2.1 1.5-.3 1.2-1.3 2.1-2.1 2.1s-1.4.9-1.4 2-.5 2-1.1 2c-.6 0-.9-.7-.6-1.5.4-.8.3-1.7-.2-1.9-.7-.5-.9.1-1.3 4.4-.1 1.2-1 2-1.9 2-1 0-2 .9-2.4 2-.3 1.1-1.2 1.9-1.8 1.7-.7-.1-1.1.6-.9 1.6.2.9-.1 1.7-.5 1.6-2.1-.4-3.1.3-3.7 2.3-.5 1.9-.8 2.1-1.6.8s-1-1.2-1.1.5c-.1 1.1-.1 2.7 0 3.5.2 1.3.1 1.3-.9 0-.9-1.3-1.1-1.3-1.9 0-.5.8-.7 1.8-.4 2.4.4.5 0 .7-.9.3-2.6-1-3.4 1-2.8 7.3.4 3.7.2 6.1-.5 6.4-1 .4 2.2 1 3.9.7.5-.1.6.5.3 1.4-.4.8-.2 1.5.4 1.5.6 0 .7.6.3 1.2-.6 1-.4 1 .8 0 1.3-1.1 1.7-.9 2.3 1.5.7 2.6.8 2.6 1.5.8.8-1.8.9-1.7.9.7.1 2.2.6 2.8 2.4 2.8 3.1 0 4 1 2.5 2.7-.8 1-.8 1.7.1 2.6 1 .9 1.1.9.6-.4-.4-1 0-1.6.9-1.6.8 0 1.3.8 1.1 1.8-.2 1 .4 1.9 1.7 2.2 1.1.3 1.7 1 1.3 1.6-.3.7.2 1.1 1.4 1.1 1.4 0 2.1.6 2.1 2s.7 2 2.1 2c1.5 0 1.9.5 1.5 1.5-.4 1 .1 1.5 1.5 1.5 1.1 0 1.8.4 1.5.9-.9 1.5 2.2 3.4 4.6 2.8 2.2-.6 2.2-.6.3.9-1.1.8-2.6 1.2-3.4.9-.9-.3-1.2-.2-.7.2.4.4 2 .8 3.4.8 2 0 2.7.5 2.6 1.8-.1.9.1 1.7.5 1.8 3.9.5 11.9.3 12.9-.4.8-.6 1.2-.5 1.2.4 0 1.1.2 1.1 1-.1.9-1.3 1-1.3 1 0s.2 1.3.9 0c.6-.8.7-1.8.4-2.4-.3-.5-.1-.6.5-.2.6.4.9 1.4.6 2.4-.5 1.4-.4 1.5.5.2.6-.8 1.1-2.5 1.1-3.8 0-1.3.4-2 1-1.7.6.4.8 1.1.5 1.6-.3.5.1.6 1 .2 1.2-.4 1.3-.8.4-1.3-.8-.6-.6-1.1.8-1.9 1.1-.5 2.3-.8 2.6-.5.3.3.4-.3.3-1.3-.1-1.4.5-1.7 2.4-1.5 2.4.2 2.3.1-.5-1.3-1.6-.8-2.3-1.3-1.4-1.1.9.3 2.6-.2 3.7-.9 1-.8 2.1-1.2 2.4-1 .3.3.5-.2.6-1 .1-.8.3-2.2.4-3 .1-.9.7-1.4 1.5-1.1 1.2.5 1.8-.6 1.4-2.7-.1-.5.3-.6.9-.2.6.3.8 1.1.5 1.6-.3.5.1.6.9.3.9-.3 1.4-1 1.1-1.4-.3-.5-.1-1.9.4-3.2.6-1.2 1-1.7 1-1.1.1.7.6 1.3 1.2 1.3.5 0 .7-.5.4-1-.6-.9.7-1.4 3-1.1.6.1.2-.5-.8-1.3-1.2-.9-1.4-1.6-.8-2.1.6-.3 1.1-.2 1.1.4 0 .6.6.8 1.4.5.8-.3 1.2-1.2 1-1.9-.3-.7 0-1.6.7-2.1.7-.4 1-.3.5.4-.3.6-.2 1.4.4 1.7.6.4 1 .3.9-.2-.3-1.9.2-3.4 1-2.8.5.3 1.3 0 1.7-.6.4-.7.3-.9-.4-.5-.6.3-1.3.2-1.7-.4-.5-.8 3-1.5 5.7-1.1.4 0 .5-.6.2-1.3-.3-.8-1.1-1.4-1.7-1.2-.7.1-.2-.2 1.1-.8 1.3-.6 2-1.6 1.7-2.4-.2-.7-.1-1.1.3-.8.4.2 1.8-.2 3.2-1.1 1.4-.8 1.7-1.2.8-.9-1.2.3-1.5.1-1.1-1 .3-.8 1.3-1.2 2.2-1 .9.3 2.3.1 3.1-.5 1.3-1 1.3-1-.1-.6-.9.3-1.6-.1-1.6-.8 0-.8.3-1.4.6-1.3 2.8.3 3.3-.2 2-1.9-.9-1-.9-1.4-.2-1 .7.4 2.1.2 3.3-.5 2.1-1.4 2.9-3.4.8-2.2-.7.4-.9.3-.5-.1 1.4-1.6 3.6-1.4 3.1.3-.4 1.4-.3 1.3.6-.1.9-1.3.9-2.2 0-3.2-.8-1-.8-1.5.1-2.1.7-.4.9-.3.6.3-.4.6 0 1.6.7 2.3 1.2.9 1.4.6 1.3-2.2-.1-1.8-.9-3.9-1.7-4.6-1.3-1-1.3-1.1.3-.6 2.2.8 2.2-.5 0-2.1-1.3-.9-1.3-1.4-.3-2 .9-.5 1.1-.4.6.3-.4.7-.2 1.2.3 1.2.6 0 1.1-1.4 1.1-3.1 0-2.1-.4-2.8-1.2-2.3-.8.5-.7 0 .2-1.1 1.4-1.7 1.3-1.8-.2-1.3-2.5 1-5.2-2.7-5.3-7.2-.1-4.4-1.2-6.1-2.5-4-.6 1-.9.5-1.2-1.6-.2-2-.8-2.8-1.9-2.6-1.1.1-1.6-.4-1.5-1.5.1-1.2-.5-1.7-1.6-1.5-1.2.2-1.8-.4-1.8-1.8 0-1.3-.7-2-1.9-2-1.1 0-2.3-.5-2.7-1.2-.4-.7-.3-.8.4-.4s1.2.2 1.2-.3c0-.6-.5-1.1-1.1-1.1-.6 0-.8-.7-.5-1.7.4-1 .4-1.4 0-1.1-.4.4-1.6.2-2.7-.4-1.7-.9-1.9-.8-1.3.7.5 1.4.4 1.5-.7.7-.7-.6-2.5-1.2-4-1.4-2.5-.4-3.4-1.6-2-2.8.4-.3.3.1-.2.9-.5 1-.4 1.2.4.7 1.6-1 .4-2.6-2-2.6-1 0-1.9-.4-1.9-.9 0-1.4-2.6-2-4.1-.9-1.1.8-1.1.9.3.4 1-.3 2-.1 2.3.4.4.6-.5 1-1.9 1s-2.6-.6-2.6-1.3c0-.8-.3-.9-.8-.1-1.1 1.6-9.1 1.2-10.3-.6-.9-1.2-1-1.2-.5.3zM365.5 159c-.3.5-1.2 1-1.8 1-.7 0-.6-.4.3-1 1.9-1.2 2.3-1.2 1.5 0zm36 67c-.3.5-1.2 1-1.8 1-.7 0-.6-.4.3-1 1.9-1.2 2.3-1.2 1.5 0z"/>
    <path
        d="M398.8 130.7c.7.3 1.6.2 1.9-.1.4-.3-.2-.6-1.3-.5-1.1 0-1.4.3-.6.6zM103.5 132.8c-3.6.4-5.2 1.7-3.4 2.7.8.5 1 .4.5-.3-.5-.8-.1-1 .9-.5 1.3.4 1.4.8.4 1.4-.7.4-1.6.6-2 .3-.4-.2-1.5.6-2.4 1.8-1.5 2.1-1.6 2.1-1.1.3.5-1.6.1-2.1-1.4-2.1-1.1 0-2 .4-2 .8s-1 .4-2.3-.1c-1.7-.7-2.4-.6-2.4.4 0 .7.6 1.1 1.4.8.7-.3 1.3-.1 1.3.4s-1 1-2.2 1.1c-4 .4-5.7.8-6.4 1.5-.4.3.3.5 1.5.2 1.1-.2 2.1 0 2.1.6 0 .5-1.1.9-2.4.9-4.3 0-5.8 1-4.4 2.9.7.9.8 1.2.3.8-.5-.4-1.5.3-2.3 1.5-.7 1.3-1.1 1.5-.8.5.3-.9.1-1.7-.4-1.7-.9 0-1.5 4.7-1.1 7.3.1.5-.3.6-.9.2-.6-.3-.7-1.1-.4-1.7.4-.7.2-.8-.4-.4-.9.5-.9 1.3 0 2.9 1 2 1 2.1-.6.8-1.4-1.2-1.6-1.2-1 .3.5 1.2.2 1.5-1 1-1.4-.5-1.8 0-1.5 2.2 0 .4-.5 1.1-1.3 1.5-1 .7-1 .9 0 .9 2.5 0 .1 2-2.6 2.1-1.5 0-2.1.3-1.4.6.6.2 1.2 1.1 1.2 1.9 0 .8-.6 1.4-1.2 1.4-.8 0-.9.3-.3.8 1.6 1.1 1.8 4.4.3 5.3-1 .7-1 .9 0 .9.6 0 1.2.6 1.2 1.4 0 .8-.6 1.7-1.2 1.9-1 .4-1 .6 0 .6.6.1 1.2.8 1.2 1.7 0 .9-.5 1.2-1.2.8-.8-.5-.7 0 .2 1.1.9 1.1 1 1.6.3 1.1-.7-.4-1.3-.2-1.3.3 0 .6.5 1.1 1 1.1.6 0 1 1.3 1 2.8 0 1.9.5 2.9 1.5 2.9 1.2 0 1.2-.3.2-1.6-1.1-1.4-1-1.4.6-.2 1 .8 1.6 2.3 1.5 3.4-.2 1.1.4 2.2 1.2 2.4 1.3.4 1.3.3 0-.6-1.1-.8-1.2-1.1-.2-1.1.8 0 1-.5.6-1.3-.4-.6-.3-.8.1-.4.8.7 1.5 2.8 1.7 5.4.1.7.5 1 .9.7.5-.2.6-1.1.2-1.9-.3-.8-.1-1.5.5-1.5.5 0 .9 1 .8 2.2 0 1.3.4 2.2 1.1 2.1.7-.2 1.7.6 2.3 1.7.6 1.1 1.5 1.8 2 1.5.5-.3 1.2-.1 1.5.5.4.6.1.9-.6.8-.6-.2-1.4.3-1.6 1-.3.7-.1 1.2.4 1.1 2.5-.4 5.3.2 4.8 1.1-.4.6-1.1.7-1.7.4-.7-.4-.8-.2-.4.5.4.6 1.2.9 1.7.6.5-.4.9-.2.9.4 0 .6.6.8 1.4.5.8-.3 1.7-.1 2.1.5.3.6 0 .9-.8.5-.8-.3-1.8-.1-2.2.5-.3.7.2 1.1 1.4 1.1 1.4 0 2.1.6 2.1 2 0 1.1.5 2 1.1 2 .5 0 .8-.4.4-.9-.3-.5 0-1.3.7-1.7.7-.4 1-.4.6.1-1.1 1.1 1.2 3.6 2.5 2.8.6-.3.7-.1.3.6-.4.6-1.1.9-1.5.7-.4-.3-.8.1-.8.9 0 1 .5 1.1 1.8.4 1.4-.7 1.8-.5 2.1 1.4.2 1.2.9 2.3 1.6 2.3.6.1 1.8.2 2.6.3.9.1 1.2.8.9 1.9-.6 2.3 2.2 4.9 3.3 3.1.4-.7.3-.9-.4-.5-.6.3-1.3.2-1.6-.3-.4-.5.1-.8.9-.7.9.1 1.6.6 1.6 1.2 0 .5.5 1.4 1.1 2.1.5.7.6 1.8.2 2.5-.6.9-.3.9.9-.1 1.5-1.2 1.7-1.2 1 .4-.5 1.4-.3 1.7.9 1.2 1.8-.6 6.4 3.8 7 6.8.2 1.1 1 1.9 1.6 1.8.7-.2 1.2 0 1.3.5.3 3.4 1.9 7.1 1.9 4.5 0-.6 1.1-.8 2.5-.5 1.4.2 2.2.8 1.9 1.3-.3.5-1 .7-1.5.4-.5-.4-.9-.1-.9.5 0 .7.6 1 1.4.7.8-.3 2 0 2.6.8.8 1 .8 1.4-.2 1.7-.9.3-.9.6 0 1.2.7.4 1.2.2 1.2-.3 0-.6.4-1.1.9-1.1.4 0 .8 1 .7 2.2-.1 1.7.5 2.3 1.9 2.3 1.3 0 1.9.6 1.7 1.7-.3 2 1.3 2.4 2.4.6.5-.7.3-.8-.6-.3-.9.6-1.1.4-.6-.4.5-.7 1.1-.9 1.5-.6.6.7.8 1.3 1 4.6 0 1.1.5 1.8 1.1 1.4.5-.3.7-1.3.4-2.3-.5-1.4-.4-1.4.4-.2.6.8.8 1.8.6 2.2-.3.4 0 .8.6.8s.8.4.5 1c-.3.5-.2 1 .4 1 .5 0 1.2-.6 1.5-1.3.4-.6.4-.2.2 1-.3 1.5.1 2.3 1.1 2.3.8 0 1.1.4.8 1-.6.9 1 1.4 4.2 1.3.6 0 1 .8.8 1.7-.2 1 .3 2.6 1.1 3.7 1.3 1.6 1.3 1.6.8 0-.3-.9-.2-1.7.4-1.7.5 0 1.3 1.6 1.6 3.5.4 2 1.1 3.3 1.7 3 .5-.4.7-1 .4-1.5-.3-.5-.1-1.1.4-1.5.6-.3.8.3.6 1.5-.2 1.1.1 2.2.6 2.5.5.4.7 1 .4 1.5-.3.5-.1 1.1.5 1.5.5.3 1 .1 1-.5s.5-.8 1-.5c.6.4.8 1.6.4 2.8-.6 2.2-.6 2.2 1 .2 1.4-1.8 1.5-1.8 1.6-.3 0 1 .4 1.8 1 1.8.5 0 .7.7.4 1.5-.5 1.1-.2 1.3 1 .9.9-.4 1.6-.1 1.6.6s.8 1 1.9.7c1.4-.3 1.8-.1 1.4.9-.3.8-.9 1.2-1.3.9-.5-.3-1.1-.1-1.5.4-.3.6.4.8 1.6.6 1.6-.3 1.9-.1 1.4 1.3-.5 1.4-.4 1.5.6.4 1.9-1.8 3.4-1.5 1.9.4-1.1 1.2-1.1 1.5.1 1.2.8-.2 1.3.4 1.3 1.4-.1 1.2.5 1.8 1.8 1.8 1.2 0 1.8.6 1.6 1.7-.2 1.2.3 1.7 1.5 1.5 1.5-.3 2.2.9 1.8 3.1-.1.5.2.6.7.3.5-.3 1.8.1 2.8.9 1.2.9 1.4 1.4.6 1.5-.7 0-1.1.4-.7 1 .3.5 1.2.7 2 .3 1.1-.3 1.5.2 1.5 1.8 0 1.2.3 2 .6 1.7.3-.4 1.9-.2 3.6.3 2.8.8 3 .7 2.6-1.5-.4-1.9-.1-2.2 2-1.8 2 .4 2.4.2 1.9-1.2-.4-1-.1-1.6.8-1.6 1.4 0 1.9-1.2 1.6-3.3 0-.4.2-.6.6-.6 2.3.4 3.3-.3 3.3-2.1 0-1.2.5-1.7 1.4-1.4.8.3 1.7 0 2.1-.5.3-.6 1.1-.9 1.6-.6.5.3.6-.1.3-.9-.4-1-.1-1.6 1-1.6.9 0 1.3-.6 1-1.4-.3-.8 0-1.7.7-2.2.8-.5 1-.3.5.7-.4.8-.1.6.7-.4.9-1 1.8-1.8 2.2-1.7.4.1 1-.2 1.3-.6.4-.4.2-.4-.5 0-.6.3-1.4.2-1.8-.4-.3-.5.1-1 1-1 1 0 1.3-.5.9-1.3-.6-.9-.5-.9.7 0 1.8 1.4 3.3.5 3.7-2.2.2-1.1.8-2.5 1.4-3 .8-.7.9-.5.4.5-.4.8 0 .6.8-.4.9-1.1 1.6-2.6 1.6-3.3 0-.7.6-1 1.4-.7.8.3 1.7 0 2.2-.7.5-.8.3-1-.6-.4-.9.6-1.1.4-.6-.4.5-.7 1.4-1 2.2-.7 1 .4 1.4-.2 1.4-1.9 0-1.9.5-2.5 2.1-2.5 1.8 0 2-.5 1.6-2.7-.5-2.5-.4-2.6.8-1 1.1 1.6 1.3 1.6 1.9.2.3-.9.2-1.4-.3-1.1-.5.3-1.2-.1-1.5-1-.3-.8-.2-1.2.3-.9.5.3 1.3 0 1.7-.7.4-.7.4-1-.1-.6-.4.4-1.4.3-2.1-.3-1-.8-1-1.6-.1-3.6 1-2.1.9-2.7-.2-3.1-1-.3-.7-.8.9-1.7 1.9-1 2-1.3.6-1.8-1.1-.5-1.5-.3-1 .5.4.7.3.8-.4.4-.8-.5-.9-1.3-.3-2.4 1.1-2.1-.5-5.6-2.1-4.6-.7.4-.8.2-.4-.5.4-.6 1.1-.9 1.6-.6.5.3 1.1.1 1.4-.4.4-.5-.5-.8-1.9-.6-1.8.2-2.5-.2-2.5-1.6 0-2.1-1-2.8-4.3-3.1-1.3-.1-2.4-.7-2.4-1.3 0-3.3-.4-4.4-1.7-3.9-.8.3-1.7 0-2.2-.7-.5-.8-.3-1 .5-.4 1 .6 1.1.3.2-1.2-.6-1.1-.7-2.4-.3-2.8.4-.4-.3-.3-1.4.3-2.5 1.3-3.9.5-2.3-1.5 1.4-1.7-.2-1.7-2-.1-1.1 1-1.2 1-.7.1.4-.8-.4-2.4-1.8-3.8s-2.2-2.5-1.9-2.5c.3 0 0-.6-.6-1.4-.6-.7-2.2-1.2-3.4-1.1-1.5.2-2.4-.2-2.4-1.1 0-1 .4-1.1 1.3-.3.8.7 1.4.6 2-.2.4-.7.3-.9-.3-.6-.6.4-1.6 0-2.3-.8-.7-.8-1.6-1.2-2.1-.9-.5.3-.6-.3-.2-1.3.6-1.6.5-1.6-1.1-.4-1.4 1.2-1.7 1.2-1.4.1.2-.8-.2-1.4-.9-1.5-.6 0-1.5-.4-2-.8-.4-.5-.3-.8.2-.7.6.1 1.6.2 2.4.1 1.9-.1.4-1.6-1.7-1.6-.9 0-1.6-.6-1.4-1.4.2-.8-.3-1.1-1.2-.8-1.5.6-3-1.8-2-3.4.3-.5-.8-.9-2.5-.9-1.6 0-3.3-.4-3.6-1-.3-.6.1-.7.9-.4.9.3 1.6.2 1.6-.4 0-.9-3.7-2.5-5.3-2.3-.5.1-.6-.3-.2-.9.3-.6 1.1-.7 1.7-.4.7.5.8.2.4-.5-.5-.7-1.5-1-2.3-.7-1.2.5-1.4.1-1-1.4.5-2 .3-2.1-3.3-2.4-1.1 0-1.9-.4-1.7-.7.4-1.1-2.6-4-3.8-3.6-.6.3-1.2-.6-1.3-2-.3-3.4-1-4.3-2.9-3.6-1.3.5-1.5.2-1-1.1.5-1.2 0-1.9-1.6-2.5-1.2-.5-2.5-.7-2.9-.4-.5.2-.8-.1-.8-.6 0-.6.6-1.1 1.3-1.1.8 0 .7-.4-.3-1-1.1-.7-2-.4-3.2 1.1l-1.8 2.1v-2.3c0-1.4-.3-1.9-.8-1.3-.5.9-1 .8-2-.2-.7-.7-1.3-1.7-1.3-2.1 0-.5-.8-.8-1.8-.7-1.2 0-1.8-.7-1.7-2 .1-1.4-.5-2.1-1.6-2.1-1 0-1.8-.5-1.7-1 0-.6.8-.9 1.7-.7 1.4.3 1.3.1-.3-1.1-1.5-1.1-2.2-1.2-2.7-.4-.5.8-1 .4-1.4-1-.3-1.2-1.5-2.5-2.5-2.8-1-.4-1.9-1.3-1.9-2.2 0-.9-.6-1.3-1.4-1-1 .4-1.3 0-1.1-1.4.4-1.8.2-1.9-1.2-.7-1.2.9-1.5.9-.9 0 .5-.8.1-1.2-1-1.2-1.6 0-1.6-.1.2-1.6 1-.8 1.4-1.3.7-1-.6.4-1.5.1-1.8-.5-.4-.5-1.3-.8-2.1-.5-.9.3-1.4-.2-1.5-1.4-.2-3.3-.4-3.8-1.3-4.7-.5-.5-.6-.3-.2.4.4.8.1 1.3-.9 1.3-.9 0-1.3-.5-1-1 .3-.6-.3-1-1.4-1-1.2 0-2-.3-2-.8.3-2-.2-3.2-1.6-3.2-1.4 0-1.9-1.2-1.6-3.3 0-.4-.4-.7-1-.7-.5 0-.7-.5-.3-1.2.4-.7.3-.8-.4-.4-.6.4-2.1.2-3.2-.4-1.2-.6-2-.7-2-.1 0 .5.6 1.1 1.3 1.4.6.2-.1.4-1.8.4-1.6 0-2.4-.2-1.7-.4 2-.8 1.4-2.2-.8-1.6-1.1.3-2 0-2-.6s.5-1.1 1.1-1.1c.5 0 .7-.5.4-1.1-.4-.6-.9-.8-1.2-.5-.3.2-1.5.1-2.7-.2-1.1-.4-3.4-.6-5.1-.4zm-31.8 26.8c-.3.3-1.2.4-1.9.1-.8-.3-.5-.6.6-.6 1.1-.1 1.7.2 1.3.5zm92.6 19.9c-.3.9-.8 1.4-1 1.1-.3-.3-.2-.9.2-1.5.9-1.6 1.5-1.3.8.4zm-65.8 39.4c.3.5.2 1.2-.3 1.5-.5.3-.9-.1-.9-.9 0-1.7.3-1.9 1.2-.6zm111.2 6.3c-.3.8-.6.5-.6-.6-.1-1.1.2-1.7.5-1.3.3.3.4 1.2.1 1.9zM119 239.4c0 .3-.4.8-1 1.1-.5.3-1 .1-1-.4 0-.6.5-1.1 1-1.1.6 0 1 .2 1 .4zm4 4.5c0 .4-.6.8-1.4.8-.8 0-1.2-.6-.9-1.4.5-1.3 2.3-.9 2.3.6zm107.5 0c.3.5.2 1.2-.3 1.5-.5.3-.9-.1-.9-.9 0-1.7.3-1.9 1.2-.6zm-98.1 9c.3.5-.1 1.1-.9 1.4-.9.4-1.2.1-.8-.9.6-1.6 1-1.7 1.7-.5zm87.9 34.1c-.3 1.2-.8 1.9-1.1 1.6-.5-.6.5-3.6 1.2-3.6.2 0 .2.9-.1 2zM209 298c0 .5-.5 1-1.1 1-.5 0-.7-.5-.4-1 .3-.6.8-1 1.1-1 .2 0 .4.4.4 1zm-28.6 2.9c.3.5-.1 1.1-.9 1.4-.9.4-1.2.1-.8-.9.6-1.6 1-1.7 1.7-.5zm4.1 4.9c-.3.3-1.1 0-1.8-.7-.9-1-.8-1.1.6-.5 1 .3 1.5.9 1.2 1.2zm5.6 5.5c-1 .9-1.1.8-.5-.6.3-1 .9-1.5 1.2-1.2.3.3 0 1.1-.7 1.8zM237 146.1c0 .5.5.7 1 .4.6-.3 1-.8 1-1.1 0-.2-.4-.4-1-.4-.5 0-1 .5-1 1.1zM353.5 150c.3.5.8 1 1.1 1 .2 0 .4-.5.4-1 0-.6-.5-1-1.1-1-.5 0-.7.4-.4 1zM230 152c0 .5.5 1 1.1 1 .5 0 .7-.5.4-1-.3-.6-.8-1-1.1-1-.2 0-.4.4-.4 1zM159.4 159.1c-.4.7-.3.9.4.5.5-.3 1.2 0 1.5.6.2.7.7 1 1.1.7.4-.3 0-1.2-.8-1.8-1.1-.9-1.6-.9-2.2 0zM223.5 158.9c-.3.5-.2 1.2.3 1.5.5.3.9-.1.9-.9 0-1.7-.3-1.9-1.2-.6zM343.5 159.1c-.4.6-.4 1.3-.1 1.6.3.4.6.1.6-.6s.5-.9 1.2-.5.8.3.4-.4c-.9-1.5-1.3-1.5-2.1-.1zM442.6 163.1c.9 1 2.1 1.6 2.5 1.3 1.3-.8 1.1-1.4-.3-1.2-.7.2-1.2-.2-1.1-.8.1-.6-.5-1.1-1.3-1.1-1.2 0-1.1.4.2 1.8zM332.5 170c-.3.6.1.7.9.4 1.8-.7 2.1-1.4.7-1.4-.6 0-1.3.4-1.6 1zM184 183.1c0 .5.5.7 1 .4.6-.3 1-.8 1-1.1 0-.2-.4-.4-1-.4-.5 0-1 .5-1 1.1z"/>
    <path
        d="M175.8 188.7c.7.3 1.6.2 1.9-.1.4-.3-.2-.6-1.3-.5-1.1 0-1.4.3-.6.6zM202 189c-.8.5 0 .7 1.8.7 1.7-.1 2.9-.4 2.6-.6-.8-.9-3.1-.9-4.4-.1zM439 190c0 .5.5 1 1.1 1 .5 0 .7-.5.4-1-.3-.6-.8-1-1.1-1-.2 0-.4.4-.4 1zM178.8 191.3c.7.8.8 1.8.4 2.2-.4.5-.1.5.6.1 1.7-1 1.5-2.3-.4-3-1.3-.5-1.4-.4-.6.7zM198.3 192.5c0 .8.4 1.2.9.9.5-.3.6-1 .3-1.5-.9-1.3-1.2-1.1-1.2.6zM75.6 199.9c-.3.5.1 1.1.9 1.4.9.4 1.2.1.8-.9-.6-1.6-1-1.7-1.7-.5zM314.3 206.6c0 .7.6 1 1.4.7.7-.3 1.3-.8 1.3-1.2 0-.4-.6-.8-1.3-.8-.8 0-1.4.6-1.4 1.3z"/>
    <path
        d="M318.5 206.8c.3.9.3 1.3-.1 1-1-1.1-4.4 1.1-4.4 2.7 0 .9-.6 1.2-1.5.9-1.4-.6-2 .6-1.6 3 .1.5-.5.6-1.3.3-2-.8-3.2 1.3-1.5 2.5 1.1.8 1.1.9-.2.5-.9-.3-2.6.1-3.7.8-1 .8-2.2 1.1-2.6.8-.3-.3-.6-.1-.6.6 0 .8.7 1 2.1.6 1.5-.5 1.9-.4 1.5.4-.4.6-1.6 1.1-2.7 1.1-1.3 0-1.9.7-1.9 2.1 0 1.1-.5 1.7-1 1.4-.6-.4-.7-1.1-.4-1.7.4-.7.2-.8-.5-.4-.6.4-.9 1.2-.6 1.7.6.8-.9 1.3-2.8 1-.5-.1-.6.2-.4.6.8 1.4-.9 4.8-2.4 4.8-.8 0-1.5 1-1.7 2.2-.2 1.3-.7 2.3-1.2 2.3s-.7-1-.5-2.1c.3-1.2.1-1.8-.3-1.5-.7.8-.9 1.4-1.1 4.6 0 1.1-.6 2-1.1 2-.6 0-.9-.3-.8-.8.2-.4-.1-.8-.7-1-1-.2-1.1.2-1.4 3.4-.1 1-.7 1.4-1.7 1-.8-.3-1.2-.2-.9.4.3.6.1 1-.5 1-.7 0-.9.7-.6 1.6.4 1.2.2 1.5-.9 1.1-.8-.4-1.7-.2-2 .3-.3.5-1.3.7-2.3.4-1.4-.5-1.4-.4-.2.4.8.6 1.8.8 2.2.6.4-.3.8 0 .8.6s-.8 1-1.7.8c-1.6-.3-1.8.8-1.9 10 0 6.5.3 9.7.8 8.7 1.1-1.9 2.8-1 2.8 1.6 0 1 .5 1.9 1.1 1.9.5 0 .7-.5.3-1.2-.4-.7-.3-.8.4-.4s1.2 1.4 1.2 2.2c0 .8.7 1.4 1.5 1.4 1.3 0 2.1 2.6 1.6 5.3-.1.5.3.6.9.2.6-.3.8-1 .6-1.4-.3-.4.1-.8.9-.8 1 0 1.1.5.5 1.8-.8 1.4-.6 1.7 1.5 1.4 2-.2 2.5.2 2.5 2.1 0 1.2.5 2.6 1.2 3 .6.4.8.3.5-.3-.3-.5 0-1 .9-1 1 0 1.2.7.8 2-.5 1.5-.3 1.9 1 1.4 1.9-.7 3.1.9 1.5 1.9-.8.5-.9.3-.4-.6.5-.9.4-1.1-.4-.6-.6.4-.9 1.2-.5 1.7.3.5.9.7 1.4.4.4-.3 1.1.1 1.3.7.4 1 .6 1 .6 0 .1-1 .5-.9 1.8.3 1.4 1.4 1.4 1.8.2 2.6-1 .6-.7.9 1.4.9 1.5 0 2.7.5 2.7 1.1 0 .5-.5.7-1.2.3-.7-.4-.8-.3-.4.4s1.6 1.2 2.7 1.2c1.3 0 1.9.7 1.9 2.1 0 1.1.5 1.7 1 1.4.6-.3 1-.1 1 .5s.5.8 1.2.4c.7-.5.9-.2.6.7-.7 1.8 1.8 4.4 2.5 2.6.5-1.2 1.1 2.6.8 5.3-.2 1.3-.1 1.3.8 0 .5-.8.7-1.8.5-2.2-.3-.4-.1-.8.4-.8.6 0 1.3 1.1 1.6 2.5.4 1.6 2 3.2 4.1 4.2 2.4 1.2 3.1 1.9 2.3 2.5-.9.5-.5.8 1.1.8 1.9 0 2.2.4 1.8 2.1-.5 1.7-.3 1.8.9.8s1.5-1 1.2.2c-.2.8.3 1.3 1 1.2.6-.2 1.2.3 1.2 1.1s.9 1.8 2 2.1c2.3.7 2.6 2.1.8 2.8-1.2.5 1.7 1.1 3.6.8.5-.1.6.5.3 1.4-.5 1 0 1.5 1.3 1.5 1.1 0 2 .7 2 1.5s.5 1.5 1 1.5c.6 0 1 .5 1 1.1 0 .5-.5.7-1.2.3-.7-.4-.8-.3-.4.4 1 1.7 2.4 1.5 2.9-.6.4-1.3.5-1.1.6.5.1 1.5.7 2.3 2 2.3 1.2 0 1.8.7 1.7 1.7-.1 1.2.5 1.7 1.8 1.5 1-.2 1.5.1 1.2.7-.4.6 0 2.3.9 3.8.9 1.6 1.4 2 1.1 1.1-.3-1-.1-2 .4-2.3.6-.4 1 .6 1 2.2s.4 2.3.8 1.7c1-1.6 3 .6 2.6 2.9-.2 1.4.1 1.5 1 .8 1.5-1.3 2.6-.4 2.6 2 0 1.2.5 1.6 1.5 1.3.8-.4 1.5-.1 1.5.5s-.7 1.1-1.7 1.1c-3.2 0 .6 1.5 4.9 1.9.5.1.7.4.7.8-.4 2.6.2 3.4 2.3 2.7 2-.6 2.1-.5.9 1-1.2 1.4-1.1 1.6.5 1.7 1.1.1 2.2.1 2.6 0 .5 0 .7.2.7.7-.3 1.8.2 3.2 1.2 3.2.5 0 .7-.6.3-1.3-.4-.6-.3-.8.1-.4 1.4 1.2 1.5 3.8.2 3-.7-.4-.6 0 .1.9.8.9 2 1.4 2.8 1.1 1.3-.5 2 2 1.5 5-.1.5.3.6.9.2.6-.3.8-1 .6-1.4-.3-.4.1-.8.9-.8s1.4.3 1.3.6c-.2 2 .4 3.1 1.7 3.1.8 0 1.6.8 1.7 1.7 0 1 .2 2.3.2 3 .1.6.5 1.5.9 2 .5.4.8.3.7-.2-.5-2.1 0-3.6 1-3 .6.4.7 1.1.4 1.7-.4.7-.2.8.5.4.6-.4.9-1.2.6-1.7-1-1.5 1.1-1 2.4.5 1.2 1.5 5.4 1.8 4.5.4-.3-.4-1.1-.5-1.9-.1-.8.3-1.5.1-1.5-.5 0-1.5 4-.9 5 .8.8 1.3 1 1.2 1-.3 0-1 .5-1.5 1-1.2.6.4.7 1.1.4 1.7-.4.7-.2.8.5.4.6-.4.9-1.2.6-1.7-1-1.5 1.1-1 2.4.5 1.2 1.5 5.4 1.8 4.5.4-.3-.4-1.1-.5-1.9-.1-.8.3-1.5.1-1.5-.5 0-1.5 4-.9 5 .8.8 1.3 1 1.2 1-.3 0-1.4.5-1.7 2-1.2 1.2.4 2 .2 2-.5 0-.6.4-.9.9-.6.5.4.7-.3.4-1.4-.4-1.6-.2-1.9 1.1-1.4.9.3 2.4 0 3.3-.7.9-.8 1.4-.9 1-.3-.4.8.2 1.1 1.8 1 2.3-.1 3-1.7 2.7-5.6-.1-.5 1.7-.9 5.5-1.2.7-.1 1.2-.4 1.1-.7-.2-2 .3-3.1 1.2-2.6.6.3 1 .1 1-.5s.5-.8 1.3-.4c.9.6.9.5 0-.8-.7-.8-1-1.8-.6-2.2.4-.4.7-1.9.8-3.4 0-1.9.5-2.7 1.7-2.6 1 .1 1.7-.1 1.6-.5-.2-1.9.4-2.2 2-1 1.3 1.1 1.3.9-.2-.9-1.7-1.9-1.7-2.2-.3-1.6 1.2.4 1.7.1 1.7-1.1 0-1-.5-1.3-1.2-.9-.7.5-.8.3-.2-.7 1.2-1.8 1.4-8 .3-7.3-.5.3-.9 0-.9-.5 0-.6.5-1.1 1-1.1.6 0 1-.7 1-1.6 0-1.4-.2-1.5-1.7-.3-1.7 1.3-1.7 1.3-.3-.5 1.8-2.3 2.2-8.6.6-10.5-.8-1.2-.8-1.3.2-.7.7.4 1.2.1 1.2-.8s-.3-1.5-.7-1.5c-.5.1-1.5.1-2.3 0-1.3-.1-1.3-.2 0-1.1 1-.7 1.1-1 .3-1.1-.7-.1-1.7-.3-2.3-.4-.5-.1-1.3-.3-1.6-.4-.4 0-.1-.8.6-1.7.8-.8.9-1.4.4-1.3-2.4.4-4.4-.2-4.4-1.5 0-1.2-2.8-2.9-5.2-3.1-.3 0-.9-.3-1.3-.7-.4-.3.5-.5 1.9-.4 1.4.2 2.6-.1 2.6-.5 0-.5-1.1-.9-2.5-.9-2 0-2.5-.5-2.5-2.6 0-1.8-.4-2.3-1.2-1.7-2.1 1.2-3.9 1.2-3.1 0 1.4-2.2 1.1-3.5-.7-3-1.1.3-1.9-.2-2.3-1.6-.3-1.2-1.1-2-1.9-1.9-.8.2-1.2-.4-1-1.5.2-.9-.1-1.7-.5-1.6-1.9.3-3.3-.2-3.3-1.2 0-.5.5-.7 1.2-.3.7.4.8.3.4-.4s-1.6-1.2-2.7-1.2c-1.3 0-1.9-.7-1.9-2.1 0-1.8-.2-1.9-1.5-.9-1.5 1.3-2 .5-1.6-2.8.1-.6-.7-1.2-1.9-1.2-1.1 0-2-.7-2-1.5 0-.9-.9-1.5-2.2-1.6-2.2 0-2.2-.1-.3-.9 1.7-.7 1.7-.9.3-.9-1-.1-1.8-.6-1.8-1.1 0-.6-.7-1-1.5-1s-1.5-.7-1.5-1.5c0-1.4-1.3-2-3.4-1.6-.5.1-.4-.4.2-1.2 1-1.1.9-1.7-.3-2.7-1.3-1.1-1.4-1-.9.6.7 1.8.6 1.8-1.3-.1-1.4-1.3-1.6-2.2-.9-2.7.6-.5.1-.8-1.1-.8-2.2 0-2.7-1.2-2.6-5.7.1-.7-.4-1-.9-.7-.5.3-.7 1.2-.4 2 .3.8.2 1.4-.3 1.4s-1.2-1.2-1.6-2.8c-.4-1.5-1-2.1-1.2-1.4-.3.6-.9 1-1.3.7-.5-.3-.7-1.2-.3-2 .4-1.1-.2-1.5-2-1.5-2.1 0-2.4-.4-2-2.3.4-1.8.3-1.9-.6-.7-.9 1.2-1.1 1-1.1-1s-.2-2.2-1-1c-.8 1.3-1 1.2-1-.3 0-.9-.6-1.7-1.4-1.7-.7 0-1.6-.9-1.9-2-.3-1.3-1.1-1.8-2-1.4-1.2.4-1.4 0-1-1.5.4-1.7.1-2.1-2.1-2.1-1.8 0-2.4-.4-2-1.5.4-.9 0-1.5-.9-1.5-.8 0-1.7-.9-2-2.1-.3-1.2-1-1.8-1.7-1.4-.7.4-1.4-.2-1.7-1.4-.3-1.2-1.2-2.1-1.9-2.1-.8 0-1.4-1-1.4-2.1 0-1.9-.2-2-1.7-.8-1.1 1-1.4 1-.9.1.4-.7.2-1.2-.4-1.2-.7 0-.9-.7-.6-1.6.5-1.3.2-1.5-1.5-1.1-1.5.4-1.9.2-1.5-.9.3-.8-.1-1.7-.9-2-.8-.4-1.2-1.1-.8-1.8.4-.6 0-.6-.9.2-1.3 1-1.8 1-2.4.1-.5-.8-.3-.9.6-.4.8.5 1.1.3.8-.6-.3-.8-1.1-1.4-1.9-1.4-.8 0-1.5-.6-1.5-1.3-.1-.6-.2-1.6-.3-2.2 0-.5-.7-.7-1.5-.4-.8.3-1.6-.3-1.9-1.6-.3-1.1-1.1-1.9-1.9-1.8-.8.2-1.2-.4-1-1.5.2-1.1-.4-1.7-1.8-1.7-1.1 0-2.1-.7-2.1-1.5-.3-2.9-.4-3.3-1.3-4.2-.5-.4-.6-.3-.3.3.4.7 0 1.4-.8 1.8-.8.3-1.4.2-1.4-.2.3-2-.2-3.3-1.1-2.7-.5.3-1-.1-1-1 0-1 .5-1.3 1.3-.9.7.4.9.3.4-.2s-2.7-1-4.9-1.1c-3.3-.1-3.8.1-3.3 1.5zM385 269c0 .5-.2 1-.4 1-.3 0-.8-.5-1.1-1-.3-.6-.1-1 .4-1 .6 0 1.1.4 1.1 1zm-65 41.5c.7.9.8 1.5.2 1.5-.5 0-1.2-.7-1.6-1.5-.3-.8-.4-1.5-.2-1.5s.9.7 1.6 1.5zM435.5 370c-.3.5-1.2 1-1.8 1-.7 0-.6-.4.3-1 1.9-1.2 2.3-1.2 1.5 0zM451.9 209.8c-.2.7-1.9 1.3-3.7 1.5-1.7.1-3.2.5-3.2.9 0 .5.5.8 1 .8.6 0 1 .5 1 1 0 .6-.6 1-1.2.9-2.6-.3-3.9.1-3.3 1.1.3.5.1 1-.4 1-.6 0-1.1-.5-1.1-1 0-.6-.9-1-1.9-1-1.1 0-2.3.4-2.6 1-.3.5-.1 1 .6 1 1.8 0 .4 1.1-1.8 1.4-1 .2-1.7 1-1.6 1.7.3 1.3-1.3 1.7-7.9 2-2.5.1-3.2 1.7-1.6 3.6.8 1.1.8 1.4.1 1-.7-.4-1.7 0-2.3 1-.9 1.5-1 1.4-.4-.7.4-1.8.3-2.2-.5-1.5-.6.6-1.2 2.3-1.3 3.7-.1 1.5-.4 2.5-.6 2.3-.2-.2-1.5 0-2.7.5-1.6.6-2.5.5-2.8-.3-.2-.7-.3 2.8-.3 7.6.2 8.5-.4 11.1-2 8.6-.5-.8-.3-.9.6-.4.9.5 1.1.4.6-.4-1.1-1.7-3.7.6-2.9 2.6.5 1.2.3 1.4-.8.8-1.1-.7-1.2-.6-.3.6.5.8.9 3 .8 4.9-.1 1.9.3 4.3.8 5.2.6 1.2.5 1.8-.2 1.8s-1 .6-.7 1.2c.2.7-.3 2.2-1.2 3.3-1.5 1.9-1.5 1.9.2.5 1.8-1.3 1.8-1.2 1.4 1.8-.5 2.7-.2 3.2 1.6 3.3 1.2.1 2.6.1 3 0 .5-.1.5.4.1 1.1-1.2 1.9-1.4 3.8-.3 3.8.5 0 .9-.8 1-1.8.1-1.1.4-.8.8.8.5 1.6 1.3 2.4 2.4 2.2 1.1-.2 1.7.4 1.7 1.8 0 1.1.7 2 1.5 2s1.5.4 1.5 1c0 .5.8.7 1.8.3 1.5-.5 1.4-.4-.2.9-1.7 1.4-1.7 1.5-.2 2.1 1 .4 1.4 1.2 1.1 1.7-.4.6-.3 1 .2.9.4-.1 1.8-.1 3 0 1.6.1 2 .6 1.6 2.1-.4 1.5-.1 1.9.9 1.5.7-.3 2.2.2 3.3 1.1 1.1.8 1.4 1.3.8.9-.7-.3-1.3-.1-1.3.4 0 1 2.2 1.5 5.7 1.4.7-.1 1 .3.7.8-.3.5-1.7.7-3.2.3-2.3-.5-2.5-.4-.9.6 1 .7 2.7 1 3.8.7 1-.3 2.1-.2 2.3.1.4.6 3.2.7 8.2.3.8 0 1.3-.5.9-1-.3-.5 0-1.3.6-1.7.7-.4.9-.3.6.3-.4.6 0 1.6.7 2.2 1 .8 1.6.9 2.1.1.4-.7 1.3-.7 2.7.1 1.6.8 2.2.8 2.9-.2.6-1 1.1-1.1 1.9-.3 1.3 1.3 5.3.7 4.5-.6-.3-.5 0-1.2.6-1.6.7-.4.9-.3.6.3-.4.6.1 1.7 1 2.4 1.5 1.2 1.6 1.2 1-.3-.6-1.8 2.4-4.4 3.6-3.1.4.3.5-.3.3-1.3-.2-1.1.2-2.8 1-3.9.8-1 1.4-1.4 1.4-.9 0 .6-.5 1.5-1.1 2.1-.7.7-.6 1.2.6 1.7.9.3 1.4.2 1-.3-.8-1.4.5-4.1 2.1-4.1.8 0 1.4-.7 1.4-1.5 0-1.8 1.1-1.9 3-.3 1.2 1.1 1.2 1 .1-.5-1-1.2-1-1.7-.2-1.7.7 0 .9-.5.6-1.1-.4-.6.2-1.3 1.4-1.6 1.1-.3 1.8-.9 1.5-1.4-.3-.5.6-1.3 2-1.9 1.4-.5 2.6-1.2 2.6-1.4 0-.3-.7-.3-1.5 0-.8.4-1.5.1-1.5-.6 0-.6.4-.9.8-.6.4.2 1.4.1 2.2-.4 1-.6 1.1-1.2.2-2.2-.6-.8-.7-1.9-.2-2.7.4-.8.7-1.9.6-2.5-.2-.6-.1-.8.1-.4.9 1.5 2.5.8 1.9-.8-.3-.9-.2-1.2.5-.9.5.4 1.5.2 2.2-.3 1.6-1.3 1.4-18.9-.2-20.5-.6-.6-1.1-.7-1.1-.2 0 .5-.7 0-1.6-1.1-.8-1-1.2-1.2-.8-.4.4.9.3 1.2-.2.7s-1-1.3-1-1.8c-.1-.5-.3-1.2-.4-1.7-.1-.4-.3-1.4-.4-2.2 0-.8-.7-1.4-1.3-1.2-.7.1-1.3-.2-1.3-.8 0-.5.4-1 .9-1 1.4 0 4.1 4.1 3.5 5.2-.3.4 0 .8.6.8 1.3 0 .9-3.2-.5-4.2-.5-.4-1-1.3-1-2s-.8-1.2-1.7-1c-.9.1-2.2-.7-2.8-1.8-.6-1.1-1.5-1.8-2.1-1.5-.5.4-.9-.3-.9-1.4 0-1.4-.6-2.1-1.8-2.1-2.8 0-3.4-1.1-1.4-2.6 1.5-1.2 1.4-1.3-1-.8-2.3.4-2.8.1-2.8-1.7 0-1.5-.5-1.9-1.5-1.5-.8.3-1.5.1-1.5-.5s-.5-.7-1.2-.3c-.7.4-.8.3-.4-.4s.2-2-.4-2.9c-1.1-1.7-1.1-1.7-.6-.1.3 1 .1 1.8-.4 1.8-1 0-1.4-1.4-1.1-3.8.3-1.8-2.6-1.5-3.9.5-1.1 1.7-1.1 1.7-.6 0 .4-1.3-.1-1.7-2.4-1.7-1.7 0-2.9-.3-2.9-.8.3-2-.3-3.2-1.7-3.2-.9 0-1.3-.5-.9-1.3.4-.6.1-.5-.7.3-1.7 1.9-4.1 1.9-4.9 0-.4-1-.7-1.1-1-.2zM426 224c0 .5-.4 1-1 1-.5 0-1-.5-1-1 0-.6.5-1 1-1 .6 0 1 .4 1 1zm-10 12.1c-1.4 2.5-1.7 2.4-1.4-.4.3-3 .3-2.9 1.4-2.2.7.4.7 1.3 0 2.6zm.5 3.8c.3.5.1 1.2-.4 1.6-.6.3-.8 1.2-.5 1.9.3.8.2 1.6-.3 1.9-.4.3-.9-1-.9-2.9-.1-3.3.8-4.4 2.1-2.5zM497 248c0 .5-.5 1-1.1 1-.5 0-.7-.5-.4-1 .3-.6.8-1 1.1-1 .2 0 .4.4.4 1zm-68 40.6c0 .2-.9 0-2-.6s-2-1.3-2-1.6c0-.2.9 0 2 .6s2 1.3 2 1.6zm18 9.4c0 .5-.5 1-1.1 1-.5 0-.7-.5-.4-1 .3-.6.8-1 1.1-1 .2 0 .4.4.4 1zm18.5.8c-.3.3-1.1 0-1.8-.7-.9-1-.8-1.1.6-.5 1 .3 1.5.9 1.2 1.2zM48.1 217.3c-.1 1.2-.3 2.7-.3 3.3-.1.6-1.1 1.1-2.2 1.1-6.8.1-9 .4-7.9 1.1 1.5.9.4 2.7-1.7 2.7-.8 0-1.5.6-1.5 1.4 0 .8-.6 1.6-1.4 1.9-.9.3-1.1 0-.6-.8.5-.9.4-1.1-.4-.6-.6.4-.9 1.2-.6 1.7.4.5.1.9-.5.9s-.8.4-.5 1c.3.5-.1 1-.9 1s-1.8.5-2.2 1.2c-.5.8-.1.9 1.2.4 1.4-.5 1.6-.4.8.4-.6.6-2 1.3-3 1.4-1.1.2-1.8 1.1-1.7 2.1.1 1.2-.4 1.5-1.8 1.2-1.6-.4-1.9-.1-1.7 1.6.2 1.8-.2 2.2-2 2l-2.3-.3.3 18.8c.2 11.6.7 18.7 1.3 18.7.6 0 1.6.4 2.3.8.7.5 1.2.3 1.2-.4 0-1.8 1-.5 1.5 1.9.2 1.2 0 2.4-.5 2.7-.5.3-.7-.4-.5-1.6.4-1.7.2-1.9-1.1-.9-1 .9-1.1 1.6-.4 2.5.5.6.6 1.6.2 2-.4.5.1.5 1.2.1 1.5-.5 1.7-.2 1.3 1.4-.3 1.4-.1 2 .6 1.7.7-.3 1-1.1.9-1.8-.2-.8 0-1 .5-.6.4.5.9 1.3.9 1.8.1.5.2 1.4.3 2 0 .5.7.7 1.4.3.9-.6.9-.4-.1.8-.9 1.1-1 1.8-.2 2.3.5.3 1 .1 1-.4 0-.6.5-1.1 1.1-1.1.6 0 .9.9.6 2-.4 1.4 0 2 1.2 2 .9 0 2.2.9 2.8 1.9 1 1.6 1.8 1.8 4.2 1.1 2.6-.7 2.9-.6 2.6 1.1-.2 1.1 0 1.7.5 1.4.5-.3 1.5.4 2.4 1.6 1.5 2.2 7.3 3.8 6 1.7-.3-.5-1.5-.8-2.5-.5-1.1.3-1.9.1-1.9-.3 0-.5 4.6-.7 10.3-.6 10.4.3 13.9-.6 12.9-3.2-.3-1-.1-1.3.6-.8.6.3 1.3.2 1.7-.4.4-.6 1.1-.7 1.7-.4.8.5.9.1.5-1-.4-1-.3-1.5.3-1.1.6.3 1 1.4 1.1 2.3 0 1 .3 1.2.6.5.3-.9 1-1 2.3-.3 1.2.6 2.1.6 2.5.1.3-.6 1.4-.8 2.5-.6 1.1.2 2-.1 2-.7s-.8-.7-1.7-.3c-1.2.4-1.5.3-.8-.4.6-.6 2-1.2 3.2-1.4 1.3-.2 2.5-.6 2.9-1 .4-.3-.4-.4-1.7-.2-2.3.4-2.3.4-.5-1 1.1-.8 2.8-1.5 3.8-1.5s1.8-.4 1.8-1c0-.5-.7-.7-1.5-.4-.8.4-1.5.2-1.5-.3s1.2-1 2.7-1.1c3.2-.3 4.3-1.8 3.9-5.4-.2-1.6.2-2.8.8-2.8.8 0 .8-.3 0-.8-1.2-.8-1.4-6.2-.1-6.2.4 0 .5-.5.2-1-.4-.6.7-1 2.5-1 2.5 0 3.1-.3 2.6-1.6-.3-.8-.1-2.4.4-3.4.6-1 .7-2.1.2-2.4-.4-.2-.7-3.1-.6-6.4.1-4.8-.1-5.9-1.2-5.5-.8.3-1.4 0-1.4-.6s-.8-1.1-1.8-1.1-1.9-.7-1.9-1.5c0-1.1.4-1.2 1.1-.5.5.5 1.5 1 2 1 .6 0 .1-.7-1.1-1.5-1.6-1.1-2.1-2.4-1.9-4.8.2-1.9.7-4 1.1-4.7.5-.9.4-1.1-.3-.6-.7.4-1.2.2-1.2-.3 0-.6-.5-1-1.2-.9-.7.2-1.3-.3-1.4-1-.1-.6-.2-1.6-.3-2.2 0-.5-.9-.6-1.8-.3-1.6.6-1.7.5-.3-1.2.9-1.1 1-1.6.3-1.1-.7.4-1.3.3-1.3-.3s-.6-.8-1.4-.5c-.8.3-1.7 0-2.2-.7-.4-.8-.3-1 .4-.5 1.7 1 1.5-.3-.2-2s-3-1.9-2-.2c.4.7.3.8-.5.4-.6-.4-.9-1.1-.6-1.6.3-.4-.2-1.1-1.1-1.4-.8-.3-1.2-.2-.9.4.3.6.1 1-.4 1-.6 0-1.1-.4-1.1-.9 0-.6-.9-.8-2-.6-1.5.3-2-.2-2-1.7 0-1.4-.5-1.8-1.5-1.4-.8.3-1.5.1-1.5-.3 0-.5-1.4-.7-3.1-.4-2.5.4-3.2.1-3.6-1.7-.3-1.2-1.1-1.9-1.9-1.6-.7.3-1.8-.3-2.6-1.2-.9-1.1-1-1.4 0-.8.6.4 1.2.2 1.2-.3 0-1.5-2.7-1.4-3.3.1-.4 1-.6 1-.6 0-.1-.6-1-1.2-2.2-1.2-1.3 0-1.8.4-1.3 1.2.5.9.2.8-.9-.1-1-.8-2.1-1.1-2.4-.7-.4.4-.1 1.2.7 1.7 1.3.9 1.2 1-.2.6-.9-.3-1.9-.3-2.1.1-.2.4-.2.2-.1-.5.2-.7 0-1.4-.4-1.7-.4-.3-.9.5-1.1 1.7zm29.6 10.3c-.3.3-1.2.4-1.9.1-.8-.3-.5-.6.6-.6 1.1-.1 1.7.2 1.3.5zm22.4 33.7c-1 .9-1.1.8-.5-.6.3-1 .9-1.5 1.2-1.2.3.3 0 1.1-.7 1.8zm.6 2.4c-.4.3-.2 1.2.3 1.8.7.9.6 1.6-.3 2.3-.9.8-1.3.4-1.3-1.9-.1-1.6.3-2.9.9-2.9.6 0 .7.3.4.7zm-79.2 14.2c-.9.8-3.6 1-3 .2.2-.4 1.1-.8 2-.8.8 0 1.3.3 1 .6zm72.9 10.3c-.3.4-.9.8-1.5.8-.5 0-.9-.4-.9-.8 0-.5.7-.9 1.5-.9s1.2.4.9.9zM44.5 301c.3.5.1 1-.4 1-.6 0-1.1-.5-1.1-1 0-.6.2-1 .4-1 .3 0 .8.4 1.1 1z"/>
    <path
        d="M62.5 217c-.3.6.1.7.9.4 1.8-.7 2.1-1.4.7-1.4-.6 0-1.3.4-1.6 1zM284.5 218c-.3.6.1.7.9.4 1.8-.7 2.1-1.4.7-1.4-.6 0-1.3.4-1.6 1zM41 220c-.9.6-1 1-.3 1 .6 0 1.5-.5 1.8-1 .8-1.2.4-1.2-1.5 0zM44.5 220c-.3.6.1.7.9.4 1.8-.7 2.1-1.4.7-1.4-.6 0-1.3.4-1.6 1zM66.6 220.2c.3.5 1 .6 1.5.3 1.3-.9 1.1-1.2-.6-1.2-.8 0-1.2.4-.9.9zM427 220.1c0 .5.5.7 1 .4.6-.3 1-.8 1-1.1 0-.2-.4-.4-1-.4-.5 0-1 .5-1 1.1zM416.5 230c-.3.6.1.7.9.4 1.8-.7 2.1-1.4.7-1.4-.6 0-1.3.4-1.6 1zM109.4 234.2c-.4.7-.3 1 .1.5 1-.9 4.7 2.2 3.9 3.4-.3.5 0 .9.5.9 1.8 0 1.3-1.5-1.3-3.9-1.9-1.7-2.6-2-3.2-.9zM93.5 237c-.3.6.1.7.9.4 1.8-.7 2.1-1.4.7-1.4-.6 0-1.3.4-1.6 1zM264.6 237.8c-.2.4.4.8 1.4.8 1 0 1.6-.4 1.4-.8-.3-.4-.9-.8-1.4-.8-.5 0-1.1.4-1.4.8zM226.7 239.5c.3.8.9 1.2 1.4.9 1.2-.7 1.1-1.1-.5-1.7-1-.4-1.3-.1-.9.8zM237.6 252.7c-.6 1.4-.5 1.5.5.6.7-.7 1-1.5.7-1.8-.3-.3-.9.2-1.2 1.2zM147 272.1c0 .5.5.7 1 .4.6-.3 1-.8 1-1.1 0-.2-.4-.4-1-.4-.5 0-1 .5-1 1.1zM492.7 272.4c-.3.8.1 2 .9 2.6 1.2 1 1.4.8 1.2-1.4-.3-2.8-1.3-3.4-2.1-1.2zM126.6 274.2c.3.4.9.8 1.5.8.5 0 .9-.4.9-.8 0-.5-.7-.9-1.5-.9s-1.2.4-.9.9z"/>
    <path
        d="M130 273.9c0 .6-1.1 1.6-2.4 2.3-1.4.7-2.6 1.7-2.7 2.3-.1.5-1.6 1.1-3.5 1.1-2.6.1-3.1-.2-2.7-1.5.4-1.1.1-1-1 .4-.9 1.1-1.7 2.7-1.7 3.6 0 1-.7 1.6-1.7 1.5-1.2-.1-1.7.5-1.5 1.6.2 1.2-.4 1.8-1.6 1.8-2 0-4.5 2.4-5.6 5.4-.4 1.2-1.2 1.6-2.2 1.2-1.5-.6-1.5-.4-.3 1.1 1 1.2 1 1.5.1.9-.7-.4-2-.2-2.8.5-1.4 1.2-1.4 1.4.3 2.1 1.4.6 1.1.7-.9.5-1.5-.2-2.5 0-2.2.5.8 1.3-3.1 4.8-5.2 4.8-1.6 0-1.6.2.2 1.5 1 .8 1.5 1.5.9 1.4-.5-.1-2.1-.1-3.5 0-2 .1-2.2.3-1 1.1 1.1.7 1.1 1 .2 1-.7 0-1 .5-.7 1 .4.6.3 1-.2.9-.4-.1-1.6-.1-2.7 0-1.4.1-1.6.4-.8 1.4.8.9.4 1.5-1.4 2.4-1.3.6-2.4.7-2.4.2 0-.5-.5-.9-1.2-.9-.8 0-.6.6.5 1.7 1.6 1.6 1.6 1.8-.4 3.9-1.5 1.6-1.7 2.4-.8 2.9.7.5 1 .4.6-.2-.3-.5 0-1 .7-1s1.3.6 1.3 1.3c0 .7-.4 1.1-.8.8-.4-.2-1.1.1-1.4.7-.4.5-1.4.8-2.2.5-.8-.3-1.1-.1-.8.4.3.6.1 1-.4 1-.6 0-1.1.7-1.1 1.6 0 .9-.5 1.2-1.2.8-.8-.5-.7 0 .2 1.1 1.3 1.7 1.3 1.8-.1 1.3-.9-.3-2.2-.2-3 .3-1.2.8-1.2 1.1.1 2 1.2.8 1.1.9-.5.5-1.6-.5-2-.1-2.2 2.1-.1 2.6 0 2.7 1.3.8.8-1 1.4-1.4 1.4-.8 0 .7-.7 1.8-1.5 2.6s-1.1 1.7-.8 2.1c.4.3-.3.6-1.5.6s-2.2.6-2.2 1.4c0 .8-.6 1.7-1.2 1.9-1 .4-1 .6 0 .6 1.4.1 1.7 3.1.2 3.1-.5 0-1-.5-1-1.2 0-.6-.3-.8-.7-.5-.8.8 3.8 5.3 5 4.9.5-.1.6.2.3.7-.4.5-.2 1.2.3 1.5.5.4.8 1.7.6 3.1-.1 1.7.3 2.5 1.4 2.6 1 0 1.2.2.4.6-.7.2-1.3.9-1.3 1.4 0 .6.3.8.8.6 1.4-.9 5.2 1.2 5.2 2.8 0 .9.4 1.4.9 1.1.5-.3 1.1.1 1.4.9.4 1 .1 1.2-1.1.9-1.4-.5-1.5-.4-.2.5.8.6 2.2 1.1 3 1.1.9 0 2.1 1.3 2.7 3 .6 1.7 1.9 3 2.8 3 1.1 0 1.5.5 1.2 1.4-.4.9.2 1.7 1.4 2.1 1 .4 1.9 1.1 1.9 1.6s.5.9 1.1.9c.5 0 .7-.5.3-1.2-.4-.7-.3-.8.4-.4.6.4.8 1.4.5 2.4-.3.9-.3 1.4.2 1 .4-.4 1.4-.3 2.2.3.7.6 1.3.7 1.3.2 0-.5 1.3-.9 2.9-.8 1.6 0 2.7.4 2.4.8-.3.5-1.1.6-1.9.3-.8-.3-1.4-.1-1.4.4 0 .8 2.8 1.5 5.1 1.2.4-.1.5.8.2 1.8-.5 1.9 0 2 7 2 5.1 0 7.7-.4 8-1.3.4-1 .6-.9.6 0 .1.7.6 1.3 1.2 1.3s.9-.6.6-1.3c-.3-.8-.1-2 .5-2.8.8-1.1.9-1 .4.4-.4 1.2-.2 1.7.6 1.5.7-.3 1.4-1.4 1.6-2.6.2-1.2.8-2 1.3-1.6.5.3.6 1 .3 1.6-.4.7-.2.8.5.4.6-.4.9-1.1.6-1.6-.3-.5-.1-1.1.5-1.5.6-.4.7-1.1.4-1.7-.4-.7-.2-.8.4-.4.7.4 1.2.2 1.2-.4 0-.6.5-.8 1-.5.6.3 1-.4 1-1.7 0-1.8.2-2 .9-.8.6.8.7 1.9.4 2.5-.4.5-.2.6.3.2.5-.5.9-1.6.9-2.5 0-.9.6-1.6 1.3-1.5.6.2 1.2-.1 1.2-.6s-.6-1.2-1.2-1.4c-.7-.3-.3-.6.9-.6 1.3-.1 2.2-.4 2-.9-.1-.4.2-.8.8-.9.5 0 1.5-1.4 2.2-3 .7-1.5 1.2-2.2 1.3-1.6 0 .7.5 1.3 1.1 1.3.5 0 .7-.5.4-1-.3-.6-.2-1 .4-1 .6 0 .8-.7.4-1.7-.5-1.3-.2-1.5 1.5-1.1 1.8.5 2.2.2 2.2-1.9 0-2.3.2-2.4 1.8-1.2.9.7 1.4 1 1 .5-.9-1.1 1-4.8 2.1-4.2.4.3 1.3-.6 2-2 .6-1.4 1.6-2.2 2.1-1.9.6.3 1-.3 1-1.4 0-1.2.5-2.1 1.1-2.1.6 0 .8.8.5 1.7-.5 1.5-.3 1.4.9-.2.9-1.1 1.3-2.5 1.1-3.2-.3-.8.2-1.3 1.4-1.3 1 0 2.2-.5 2.5-1 .3-.6.1-1-.6-1-2 0-.1-1.4 2.4-1.7 1.2-.2 3-1.3 4.1-2.6 1-1.2 2.2-2.1 2.6-2 .4.1.7-.5.8-1.3.1-.7.3-2.1.4-2.9.1-.9.7-1.4 1.5-1.1.7.3 1.3.1 1.3-.5s.5-.7 1-.4c.6.3 1 .1 1-.5s.4-.9.8-.6c1 .6 1-4 0-4.9-.3-.3-.5.4-.4 1.6 0 1.2-.6 2.4-1.4 2.6-1.2.4-1.2.3-.1-.5.9-.7 1-1.2.2-1.6-.6-.4-.8-1.3-.4-1.9 1.1-1.8 1.2-3.6.2-4.3-.5-.3 0-1.3 1.2-2.3 1.7-1.4 1.9-2 .9-2.6-.9-.5-1.1-.4-.6.3.4.7.1 1.2-.9 1.2-1.2 0-1.5-.5-1.1-1.6.5-1.3.2-1.5-1.4-1.1-1.8.5-2 0-2-3.9 0-3.1-.6-4.9-1.9-6.1-1.1-.9-1.7-2.1-1.4-2.7.3-.6.3-.8-.2-.4-.4.4-2.3-.6-4.2-2.2-1.9-1.7-3.8-2.8-4.3-2.5-.5.3-1.2 0-1.6-.6-.4-.7-.3-.9.2-.6.6.3 1.6.2 2.4-.4 1.2-.7.9-.9-1-.9-3 0-5.7-1.6-4.7-2.7.5-.4 1.2-.2 1.6.6.7 1 .9.9 1.4-.3.4-.9.3-1.5-.1-1.5-2.7.4-6.2-.3-5.7-1.1.4-.6 1.1-.8 1.6-.5.5.4.9.1.9-.4 0-.6-.9-1.1-2-1.1-1.8 0-2.4-1-2.2-3.1.1-.4-1.1-.6-2.7-.5-2.8.2-3.1-.3-3.2-4.7 0-1-.6-1.7-1.2-1.6-2.6.3-3.8-.2-3.1-1.2.4-.8-.1-.9-1.7-.5l-2.4.7 2.4-1.4c2.2-1.3 1.9-1.4-4.3-1.6-3.9-.1-6.6.2-6.6.8zm15.5 5.1c-.3.5-1.2 1-1.8 1-.7 0-.6-.4.3-1 1.9-1.2 2.3-1.2 1.5 0zm6.5 6.4c0 .3-.4.8-1 1.1-.5.3-1 .1-1-.4 0-.6.5-1.1 1-1.1.6 0 1 .2 1 .4zm-42 3.6c0 .5-.5 1-1.1 1-.5 0-.7-.5-.4-1 .3-.6.8-1 1.1-1 .2 0 .4.4.4 1zm55.5 9.9c.3.5.2 1.2-.3 1.5-.5.3-.9-.1-.9-.9 0-1.7.3-1.9 1.2-.6zm7 8c-.3.2-1.2-.5-2.1-1.7-.8-1.2-1.9-2-2.3-1.8-.4.3-.8-.2-.8-1 0-1 .9-.6 2.9 1.2 1.5 1.5 2.5 3 2.3 3.3zm-.5 28.6c-.7.9-1.5 1.3-1.9 1-.3-.3.1-1 .9-1.5 2.1-1.4 2.4-1.2 1 .5zm-2 2.9c0 1.1-1.9 1.5-2.5.6-.3-.5.1-1 .9-1 .9 0 1.6.2 1.6.4zM85 373c0 .5-.5 1-1.1 1-.5 0-.7-.5-.4-1 .3-.6.8-1 1.1-1 .2 0 .4.4.4 1zM246 274c0 .5.5 1 1.1 1 .5 0 .7-.5.4-1-.3-.6-.8-1-1.1-1-.2 0-.4.4-.4 1zM249 274.5c0 .7-.7 1.6-1.6 1.9-.9.3-1.4 1.2-1.1 2 .3.8.3 1.7-.1 2.1-.4.4-.8 1.1-.8 1.6-.1.5-.2 1.3-.3 1.9 0 .5-.8.7-1.6.4-1.1-.4-1.3-.2-.9.9.3.8 0 1.8-.5 2.2-.6.3-.8 1.1-.5 1.7.4.7.2.8-.5.4-.6-.4-.9-1.2-.6-1.7.4-.5.1-.9-.4-.9-.6 0-1.1.9-1.1 2.1 0 1.4-.5 1.9-1.4 1.6-.8-.3-1.3.1-1.2 1.1.1 1.1-.6 1.7-1.9 1.7-1.1 0-1.8.5-1.5 1 .3.6.9.9 1.5.7.5-.2.6 0 .2.5-.5.4-1.4.8-2 .8-.7 0-1.2.6-1.2 1.2 0 1.5-1.3 1.8-2.3.7-.4-.4-.1-.4.7.1 1 .5 1.2.4.7-.4-1.1-1.7-2.6-.3-1.9 1.6.5 1.2.2 1.5-1 1-2.3-.9-3.1 1-1 2.3 1.7 1 1.6 1-.2.8-1.3-.2-1.9.2-1.7 1.2.3 1.2.1 1.3-.9.2-1.8-1.7-3.4-1.5-2 .2 1 1.1.7 1.9-1 3.5-1.2 1.1-2.6 1.8-3.1 1.5-.4-.3-.8 0-.8.5 0 .6.5 1.1 1.2 1.1.6 0 .8.3.5.6-.4.4-1.4.1-2.4-.7-1.5-1.2-1.6-1.2-1 .3.3 1 .2 1.8-.4 1.8-.6 0-.7.6-.3 1.2.6 1 .5 1-.7.1-1.2-1-1.7-.8-2.9 1-1.3 2.1-1.2 2.1.6.7 1.7-1.4 1.8-1.4.6.2-.8.9-1.1 2.2-.8 2.7.4.6-.2.8-1.4.6-1.2-.2-3.1.6-4.5 1.9-2.6 2.4-3.4 4.3-1.3 3 .7-.4.8-.3.4.5-.6.9-1.1.9-2.4-.1-.9-.7-1.3-.8-1-.3.4.6.2 1.7-.3 2.5-.8 1.3-1 1.3-2 0s-1-1.3-.6 0c.2.8.1 2.4-.4 3.5-.7 1.8-.8 1.8-.8.2-.1-1-.6-1.5-1.2-1.1-.6.3-.9 1.5-.6 2.5.3 1.1.1 1.7-.4 1.3-.5-.3-.9.2-.9 1 0 2-1.7 2.9-2.6 1.5-.4-.8-.3-.9.4-.5s1.2.2 1.2-.4c0-.7-.6-1-1.2-.8-.7.3-1.3 1.6-1.3 2.9 0 1.5-.6 2.4-1.5 2.4s-1.4.8-1.2 2c.2 1.9.2 1.9-.8.2-.6-.9-1.5-1.5-2.1-1.2-1.4.9-1.1 2.7.4 1.9.6-.4.4.2-.6 1.3-.9 1.1-1.4 2.2-1.1 2.5.3.4-.8.5-2.5.4-1.8-.1-3.2.3-3.6 1.2-.4 1 .1 1.2 1.8.7l2.2-.7-2.3 1.7c-1.2.9-2.6 1.4-3.1 1-.5-.3-1.2.3-1.6 1.4-.3 1.1-1.2 2.2-2 2.5-.8.3-1.5 1.2-1.5 2.1 0 .9-.7 1.5-1.6 1.3-1-.2-1.8.5-2 1.6-.1 1-.8 2.4-1.5 3-.9.8-1 .8-.5-.2.4-.6.2-1.2-.3-1.2-.6 0-1.1.9-1.1 2.1 0 1.4-.5 1.9-1.5 1.6-1.8-.7-3 .9-1.4 1.9.8.5.9.3.4-.6-.5-.9-.4-1.1.4-.6.6.4.9 1.2.5 1.7-.3.5-1 .7-1.5.4-.5-.4-.9 0-.9.7 0 1-.3.9-.9-.1-.8-1.2-1.1-.9-1.6 1.1s-1.1 2.5-2.3 2c-1.5-.5-1.6-.4-.2 1.3.8 1 1 1.6.4 1.2-.5-.3-2.3.3-4 1.4-1.6 1-2.4 1.9-1.8 1.9.5 0 1.5-.5 2-1 .7-.7 1.1-.6 1.1.4 0 .8-.3 1.5-.6 1.4-3.3-.3-5.1.4-5.1 2.2 0 1.3-.7 2-1.9 2-2.3 0-3.6 1.6-2.1 2.5.8.5.7 1.1-.1 2.1-.6.7-1.5 1.2-1.9.9-.5-.3-1.1-.1-1.5.5-.4.6-1.2.7-1.8.4-.7-.4-.9-.4-.5.1.8.9-1.5 3.5-3.1 3.5-.6 0-1.1.9-1.1 2.1 0 1.1-.4 1.8-.9 1.4-.5-.3-1.3-.1-1.6.5-.4.6-.1.9.7.8.7-.2 1.4.8 1.6 2.1.2 1.5 0 2.1-.7 1.6-.6-.3-.9-1.1-.6-1.6.4-.5.1-.9-.4-.9-1.6 0-1.3 1.6.4 3.4 2.1 2 2 4.3 0 2.6-1.3-1.1-1.4-1-.9.4.3.9.9 1.6 1.3 1.6s.7.9.8 2c.1 1.2-.5 2-1.5 2.1-1.4 0-1.5.2-.2.7.8.4 1.7 2.2 1.8 4.1.3 2.4 0 3.1-.9 2.6-.8-.5-1-.4-.5.4.4.6 1.3 1.1 1.9 1 2.8-.3 3.8.2 3.5 1.9-.1.9.1 2.3.5 2.9.5.8.3 1.3-.5 1.3-.9 0-.9.3.2 1 1.3.9 1.3 1.1 0 2.1-1.2.9-1.1 1 .7.6 1.3-.3 2.6-.1 2.9.4.3.5.9.7 1.4.4.5-.3 1.2 0 1.6.6.4.8.3.9-.4.5s-1.2-.1-1.2.6c0 1-.3.9-1.1-.2-.9-1.3-1-1.3-.6 0 .2.8.8 1.5 1.3 1.5 2.7.2 5.4 1.8 5.4 3.3 0 .9.5 2.4 1.1 3.2.9 1.2 1 1.1.6-.8-.3-1.2-.1-2 .4-1.6.5.3.9 1.2.9 2.1 0 .9.6 1.3 1.5 1 .8-.4 1.7-.1 2.1.5.4.7.3.8-.4.4s-1.2-.2-1.2.4c0 .6-.5.8-1.2.4s-.8-.3-.4.4c.4.6 1.4.8 2.3.5 1.3-.5 1.5-.2 1 1.1-.4 1-.3 1.5.3 1.1.6-.3 1-.1 1 .5s1 1.1 2.3 1c4.3-.4 6.8 0 6.2.9-.3.5-.1 1.2.4 1.6.6.3.7 1.3.4 2.3-.4 1.3-.2 1.3 1-.3 1.3-1.6 1.7-1.7 1.8-.5.1.8.1 1.9 0 2.3-.1.5.3.6.8.2.6-.3.8-1.1.5-1.8-.3-.9 1-1.1 4.7-.8 4.4.3 5.1.1 4.6-1.3-.7-1.9.9-3.1 1.9-1.5.4.8.3.9-.4.5-.8-.5-1-.2-.6.9.7 1.8 1.4 1.4 1.8-.8.3-2.3 2.7-4.7 4.5-4.6 1.1 0 .9.3-.6.9-3.1 1.3-2.9 1.8.7 1.6 2.1 0 2.9-.5 2.5-1.4-.3-.7 0-1 .5-.7.6.3 1 .2 1-.4 0-.6.6-.8 1.4-.5 1.1.4 1.3 0 .9-1.5-.5-2 .5-2.7 3.2-2.1.5.1.7-.2.3-.6-1-.9 1.2-3.5 2.3-2.8.8.5 1.3-.9 1-2.8-.2-1.3 1.7-.9 2.2.4.3.7.6.1.6-1.5.1-1.7.7-2.7 1.6-2.7.8 0 1.9-.9 2.5-2 .6-1.1 1.6-1.7 2.2-1.4.7.5.8.2.3-.6-.6-1-.4-1.2 1-.6 1.5.5 1.6.4.5-.9-.7-.9-.9-1.5-.4-1.4 2 .3 3.5-.2 2.9-1-.3-.5.4-1.3 1.5-1.6 1.8-.6 1.9-.9.8-2.3-1-1.2-1-1.4 0-.8.8.5 1.2.1 1.3-1.1 0-1 .3-1.3.6-.6.9 2.3 2.5 1.4 1.8-1-.7-2.2-.7-2.2.8-.2l1.6 2-.2-2c-.1-1.2.3-1.9 1.2-1.7.9.2 1.2-.4.8-1.7-.4-1.5 0-1.9 1.4-1.6 1.1.2 2 0 2-.6.1-.5.2-1.3.3-1.8.2-1.5 1.6-2.6 1.6-1.2 0 .9.4.9 1.4-.1 1.2-1.1 1.1-1.4-.3-2-1.1-.5-.8-.7 1.2-.7 2.1-.1 2.7-.5 2.5-1.8-.2-1.2.3-1.7 1.5-1.6 1.4.1 1.7-.4 1.4-1.7-.4-1.4 0-1.7 1.5-1.5 1.3.3 2.2-.4 2.8-2 1.1-2.8 2.6-3.5 1.6-.7-.5 1.5-.4 1.4.9-.2.8-1 1.2-2.3.9-2.8-.3-.5.4-1.2 1.6-1.5 1.5-.4 2-1.1 1.7-2.4-.4-1.3 0-1.6 1.9-1.3 2.5.4 4.1-1 2.3-2.1-.7-.5-.3-1.2 1-2.2 1.2-.8 2.1-2.1 2.1-3 0-1.4.2-1.4 1.6.3 1.3 1.6 1.5 1.6 1 .2-.3-1-.1-2 .5-2.3.5-.4.6-1.2.2-1.8-.4-.7 0-.6 1 .2 1.1.9 1.7 1 1.8.2.1-.6.2-1.7.3-2.4.1-.6.9-1.1 1.9-.9 1.1.2 1.7-.4 1.7-1.5 0-1 .5-2.5 1.1-3.3.9-1.3 1-1.2.5.2-.3 1-.1 2 .5 2.3.5.4.8.3.7-.2-.1-.4.4-1.9 1.1-3.1.9-1.7 1.9-2.2 3.4-1.8 2.1.5 2.1.5.3-.9-2-1.5-1.6-1.9 1.6-1.6 1.2.2 1.6-.3 1.2-1.3-.8-2 .6-4.3 1.6-2.7.5.9 1.1.7 2.1-.5.9-1.2 1-1.5.2-1-.7.4-1.3.2-1.3-.3 0-.6.8-1.1 1.9-1.1 1 0 2.1-.9 2.4-2 .3-1.3 1.1-1.8 2-1.4 1 .4 1.5-.1 1.4-1.3-.1-1.1.4-1.8 1.6-1.7 1.2.1 1.7-.6 1.8-2.5 0-2.3.1-2.4.9-.6.9 2.1.9 2.1 1.4-2.8 0-.6.7-1.3 1.4-1.3.6-.1 2-.2 3-.3 1.5-.1 1.5-.3.2-1.1s-1.2-1.1.7-1.6c1.1-.3 2.3-1.5 2.6-2.5.3-1.1 1.1-1.8 1.9-1.7.8.2 1.2-.4 1-1.5-.2-1.1.4-1.7 1.8-1.7 1.2 0 2-.7 2-1.8 0-.9.5-2.4 1.1-3.2.9-1.3 1-1.2.5.2-.3 1-.1 1.8.4 1.8.6 0 1-.6 1-1.4 0-.8.5-1.8 1.2-2.2.7-.5.8-.2.3.7-.6 1.1-.5 1.2.5.2 2.5-2.3 2-4.3-1-4.3-1.6 0-3.2-.5-3.6-1.2-.5-.7-.2-.9.9-.5.9.3 1.8 0 2.1-.9.3-.8.2-1.3-.3-.9-1.3.8-4.2-.6-3.5-1.7.3-.5-.3-1.2-1.5-1.5-1.2-.3-2.1-1.2-2.1-1.9 0-.8-.7-1.4-1.5-1.4-1.4 0-2-1.2-1.6-3.3.1-.5-.3-.6-.8-.2-.6.3-.8 1.3-.5 2.3.3.9-.2.4-1.1-1.1-.9-1.5-2.1-2.5-2.8-2.2-.7.4-.3-.1.8-1 2-1.6 2-1.7-.5-1.3-2.1.2-2.5-.1-2.4-2 .1-1.5-.4-2.1-1.5-2-1 .2-1.5-.3-1.3-1.5.3-1.9-1.3-2.3-2.4-.5-.5.7-.3.8.6.3.9-.5 1.1-.4.6.4-.4.6-1.2.9-1.7.5-.5-.3-.7-1-.4-1.5.4-.5.2-.9-.3-.9-.6 0-.8-1-.5-2.3.3-1.4.2-1.8-.4-1-.6.8-1.4.9-2.3.3-.8-.6-1.1-1-.7-1 .4 0 .3-.9-.3-2-.8-1.4-1.8-1.9-3.5-1.6-1.4.3-2.4.2-2.4-.2.5-3.5-.3-6-1.8-5.8-1.3.1-1.8-.6-1.7-2.1 0-1.8-.2-2-1.3-1.2-.9.9-1.3.8-1.3 0 0-.7-.8-1.1-1.7-.9-1 .2-1.8-.2-1.8-.9 0-.6-.3-1.4-.7-1.8-.4-.4-.4-1.3-.2-2 .6-1.5-1.2-1.5-3.5-.1-.9.6-1.2.5-.7-.2.4-.7-1-1.1-4.4-1-3.4 0-5 .4-5 1.3zm-.5 6.2c-.2 1-.4 1.9-.4 2.1-.1.2-.6 0-1.1-.3-.8-.5-.7-1.1.1-2.1 1.5-1.8 1.8-1.8 1.4.3zm54.5 34.7c0 .3-.4.8-1 1.1-.5.3-1 .1-1-.4 0-.6.5-1.1 1-1.1.6 0 1 .2 1 .4zM177 354c0 .5-.5 1-1.1 1-.5 0-.7-.5-.4-1 .3-.6.8-1 1.1-1 .2 0 .4.4.4 1zm-40 40.4c0 .2-.7.7-1.6 1-.8.3-1.2.2-.9-.4.6-1 2.5-1.4 2.5-.6zm22 50c0 .2-.7.7-1.6 1-.8.3-1.2.2-.9-.4.6-1 2.5-1.4 2.5-.6z"/>
    <path
        d="M264.6 277.7c-.6 1.4-.5 1.5.5.6.7-.7 1-1.5.7-1.8-.3-.3-.9.2-1.2 1.2zM274.6 288.2c.3.5 1 .6 1.5.3 1.3-.9 1.1-1.2-.6-1.2-.8 0-1.2.4-.9.9zM55.6 305.8c-.2.4.4.9 1.5.9 1.1.1 1.7-.2 1.4-.8-.7-1.1-2.2-1.2-2.9-.1zM219 308.1c0 .5.5.7 1 .4.6-.3 1-.8 1-1.1 0-.2-.4-.4-1-.4-.5 0-1 .5-1 1.1zM191 315.8c0 .5.7.9 1.5.9s1.2-.4.9-.9c-.3-.4-.9-.8-1.5-.8-.5 0-.9.4-.9.8zM78 318.2c0 .4.4.8.9.8.6 0 1.2-.4 1.5-.8.3-.5-.1-.9-.9-.9s-1.5.4-1.5.9zM208 317.9c0 .6.4 1.3 1 1.6.6.3.7-.1.4-.9-.7-1.8-1.4-2.1-1.4-.7zM179 320c0 .5.5 1 1 1 .6 0 1-.5 1-1 0-.6-.4-1-1-1-.5 0-1 .4-1 1zM310.6 336.2c.3.4.9.8 1.5.8.5 0 .9-.4.9-.8 0-.5-.7-.9-1.5-.9s-1.2.4-.9.9zM314 335.8c0 .5.7.9 1.5.9s1.5-.4 1.5-.9c0-.4-.7-.8-1.5-.8s-1.5.4-1.5.8zM318 335.8c0 .5.7.9 1.5.9s1.5-.4 1.5-.9c0-.4-.7-.8-1.5-.8s-1.5.4-1.5.8zM322 335.8c0 .4 1.4.7 3 .7 1.7.1 3-.2 3-.6 0-.3-1.3-.6-3-.7-1.6 0-3 .2-3 .6zM329 336c0 .5.5 1 1 1 .6 0 1-.5 1-1 0-.6-.4-1-1-1-.5 0-1 .4-1 1zM311.3 338.1c-1 .4-1.4.8-1 .8 1.8.2-1.9 2.8-3.8 2.7-1.1-.1-2 .3-2.1.9-.3 3.3-3.5 7.4-7.5 9.5-1.7 1-2.4.9-3.1-.1-.8-1.1-.9-1.1-.5.1.2.8 1.2 1.4 2.1 1.4.9-.1 1.6.2 1.6.7 0 .5-.8.9-1.9.9-1.1 0-2.1.9-2.4 2.1-.3 1.2-1 1.8-1.5 1.5-1.3-.8-4.2.3-4.2 1.6 0 .7.5.6 1.3-.1 1-.8 1.4-.7 1.4.4 0 .8-.4 1.2-.8 1-.8-.6-3.1 2-2.4 2.7.3.2-.1.5-.7.6-2.6.2-4.8.8-5.5 1.6-.4.4-.3.6.2.4.6-.1 1.1.1 1.3.7.2 1-.2 1.1-3.5 1.4-1.5.1-1.5.3.3 1.7 1.5 1.2 1.5 1.4.2 1.1-.9-.3-1.9-.3-2.3.1-.4.4-1.2.7-1.8.7-1.7 0-2.1 4.6-.5 5.6.9.6 1 .9.1.9s-1.2 2-1.1 7.1c.1 6 .4 7 1.8 6.6.9-.2 1.7.1 1.7.8 0 .7-.7 1.1-1.6.8-1.1-.3-1 0 .3.7 1.5 1 2 .9 2.7-.1.7-1.1.9-1 .9.4 0 1.2.4 1.6 1.3 1.1.9-.6.9-.4-.1.8-1 1.3-1 1.7.2 2.1.8.3 1.7.1 2-.6.2-.7.5-.1.5 1.1.1 1.5.9 2.6 2.1 2.9 1.2.3 2 1.4 2.1 2.7 0 2 .1 2 .9.1.9-2 1.5-.7 1.1 2.2-.2 1.3 1.1 1.7 3.6 1.4.7-.1 1 .7.8 1.9-.3 1.4.1 2 1.6 2 1.3 0 1.9.7 1.9 2.2 0 1.7.3 1.9.9 1 .6-1.1 1-1 1.6.5.5 1 .7 2.2.6 2.6-.1.5.3.6.9.2.5-.3 1-.1 1 .4 0 .6.6 1 1.3.8.6-.1 1.1.4 1 1-.2.7.3 1.3 1 1.3.8 0 .7.4-.3 1-.9.6-1 1-.3 1 .6 0 1.5-.5 1.8-1 .4-.6 1.1-.8 1.6-.4.6.4.6 1.1-.1 1.9-1 1.1-.8 1.3.9 1 1.2-.2 1.9 0 1.6.5-.3.4-.2 1.5.1 2.4.5 1.4.9 1.4 2.2.4 1.2-1 1.4-1 .8-.1-.4.8.4 2.3 2.1 4 1.7 1.6 2.1 2.4 1.1 2-1-.3-2-.2-2.3.2-.2.5 1.1.8 3 .6 3.5-.2 3.7 0 3.8 4.2 0 1.2.4 2 .9 1.7.4-.3.5-1 .2-1.6-.4-.6 0-.6 1.3.1 1.1.6 2.4.7 2.8.3.5-.4.5-.1.1.6s-1.2.9-1.8.6c-.7-.5-.8-.2-.4.5.5.7 1.5 1 2.3.7.8-.3 1.1-.1.8.4-.3.6-.1 1 .5 1s.9.4.6.9c-.7 1.1 5.5.9 7.3-.3.9-.6 1.2-.5.8.2-1.1 1.6 9.7.9 11.9-.8 1.8-1.4 1.8-1.4.5.2-1.2 1.6-1.1 1.8.2 1.8.8 0 1.8-.6 2-1.3.4-.9.6-.9.6 0 .1 1.9 3.1 1.6 3.1-.3 0-1 .6-1.4 1.4-1.1.9.4 1.6-.3 2-1.8.4-1.7 1.2-2.2 3-2.1 1.3 0 2.1.5 1.8 1.1-.3.5.2.4 1.1-.3.9-.8 2.2-1 2.8-.6.7.4.9.3.5-.4-.3-.5-.3-1.2.1-1.5.5-.2.3-.2-.4-.1-.7.2-1.5 0-1.7-.5-.3-.4.1-.8.9-.9.8-.1 2.2-.3 3-.4.8-.1 2.3-1 3.2-2.1 1-1.1 1.3-1.8.7-1.4-.7.4-1.1-.7-1.2-2.8-.1-2.9.2-3.5 1.9-3.5 1.1 0 1.7-.5 1.4-1-.4-.6-1.1-.8-1.6-.5-.5.3-.6-.1-.2-1 .5-1.3.7-1.4 1.4-.3.7 1 .9 1 .9.1 0-.7.6-1.2 1.3-1 .6.1 1.1-.6 1.1-1.6-.1-1.1.5-1.7 1.8-1.7 1.4 0 1.8-.5 1.4-1.5-.5-1.4.5-2 2.7-1.6.5.1.6-.3.2-.9-.3-.6-1-.8-1.4-.6-.4.3-.8-.1-.8-.9s.7-1.5 1.6-1.5c1.4 0 1.4-.1.1-1-1.9-1.2-2.2-5-.4-5 .8 0 1.4-.4 1.4-1 0-.5-.5-.9-1.1-.7-.6.1-1.4-.4-1.7-1.2-.3-1 0-1.1.9-.5 1.2.7 1.2.5 0-.9-1.2-1.5-1.1-1.7.5-1.7 1.8-.1 1.8-.1.2-1.1-1-.5-1.8-1.5-1.8-2.1 0-.6.7-.5 1.8.3 1.4 1.1 1.3 1-.2-.9-1.9-2.2-1.9-2.2 0-2.2 1.8-.1 1.8-.1.1-1.1-1.2-.7-1.6-1.7-1.2-3 .5-1.5.2-1.9-1.4-1.9-1.4 0-2.1-.6-2.1-2 0-1.3-.7-2-2-2-1.1 0-2-.5-2-1.1 0-.5.5-.7 1-.4.6.3 1 .4 1 .1 0-.3-1-1-2.1-1.7-1.7-.9-2-.8-1.4.2.5.8.4 1-.3.5-.7-.4-1.2-1.5-1.2-2.5 0-2.6-3.3-5.3-5.6-4.5-1.5.6-1.3.2.6-1.6 1.4-1.3 1.8-2.1 1-1.8-2.2.8-6-.9-6-2.6 0-.9-.6-1.3-1.4-1-.8.3-1.7 0-2.2-.7-.5-.8-.3-1 .7-.5.8.4.5 0-.5-.8-1.1-.9-2.4-1.6-2.9-1.6-.4 0-.6-.4-.2-1 .3-.5-.6-1.7-2-2.6-1.3-.9-2.2-2-1.9-2.5.5-.8-.9-1.3-2.8-1-.5 0-.8-.6-.8-1.4 0-.8-.7-1.5-1.5-1.5-.9 0-1.5-.9-1.5-2.1 0-1.9-.2-2-1.7-.8-1.1 1-1.4 1-.9.1.4-.7.2-1.2-.4-1.2-.6 0-.9-.4-.5-.9.3-.5.1-1.2-.5-1.6-.6-.4-.7-1.2-.3-1.8.4-.7-.1-.6-1 .2-1.5 1.2-1.7 1.2-1.1-.3.3-.9.1-1.6-.6-1.6-.6 0-.9-.4-.5-.9.5-1-2.7-3.3-4.2-3-1.9.3-2.5-.2-1.4-1.4 1.3-1.7 1.3-1.7-10.1-2-4.7-.2-9.4 0-10.5.4zm-4.5 6.4c-.3.3-.9-.2-1.2-1.2-.6-1.4-.5-1.5.5-.6.7.7 1 1.5.7 1.8zm29.8.5c0 1.1-.1 2-.3 2-.1 0-.7-.9-1.3-2-.8-1.5-.8-2 .3-2 .7 0 1.3.9 1.3 2zm-61.2 29.6c.3.8.2 1.2-.4.9-.6-.3-1-1-1-1.6 0-1.4.7-1.1 1.4.7zm90.3-1c-.3.3-1.2.4-1.9.1-.8-.3-.5-.6.6-.6 1.1-.1 1.7.2 1.3.5zm4.8 4.4c.8 1.3-.5 1.3-2.5 0-1.3-.8-1.3-1 .2-1 .9 0 2 .4 2.3 1zm0 56c.3.5.1 1-.4 1-.6 0-1.1-.5-1.1-1 0-.6.2-1 .4-1 .3 0 .8.4 1.1 1zM187 338.4c0 .2.7.7 1.6 1 .8.3 1.2.2.9-.4-.6-1-2.5-1.4-2.5-.6z"/>
    <path
        d="M307.5 339c.3.5.8 1 1.1 1 .2 0 .4-.5.4-1 0-.6-.5-1-1.1-1-.5 0-.7.4-.4 1zM345.5 340c.3.5.8 1 1.1 1 .2 0 .4-.5.4-1 0-.6-.5-1-1.1-1-.5 0-.7.4-.4 1zM181 346.1c0 .5.5.7 1 .4.6-.3 1-.8 1-1.1 0-.2-.4-.4-1-.4-.5 0-1 .5-1 1.1zM299.2 347.8c-1.3 1.3-2.2 2.6-1.9 2.8.2.2 1.4-.7 2.7-2.1 1.3-1.4 2.2-2.6 1.9-2.8-.2-.2-1.4.8-2.7 2.1zM290.6 356.3c.3 1 .9 1.5 1.2 1.2.3-.3 0-1.1-.7-1.8-1-.9-1.1-.8-.5.6zM284 363.1c0 .5.5.7 1 .4.6-.3 1-.8 1-1.1 0-.2-.4-.4-1-.4-.5 0-1 .5-1 1.1zM71.6 364.2c.3.4.9.8 1.5.8.5 0 .9-.4.9-.8 0-.5-.7-.9-1.5-.9s-1.2.4-.9.9zM441.3 364.5c0 .8.4 1.2.9.9.5-.3.6-1 .3-1.5-.9-1.3-1.2-1.1-1.2.6zM431.6 373.8c-.3.5.1.9.9.9s1.2-.4.9-.9c-.3-.4-.7-.8-.9-.8-.2 0-.6.4-.9.8zM251.5 382c-.3.5-.1 1 .4 1 .6 0 1.1-.5 1.1-1 0-.6-.2-1-.4-1-.3 0-.8.4-1.1 1zM140.6 387.2c.3.5 1 .6 1.5.3 1.3-.9 1.1-1.2-.6-1.2-.8 0-1.2.4-.9.9zM383.7 391.3c-.3.8.1 1.4.8 1.4.7 0 1.1-.6.8-1.4-.3-.7-.6-1.3-.8-1.3-.2 0-.5.6-.8 1.3zM383.5 408.9c-.3.5-.2 1.2.3 1.5.5.3.9-.1.9-.9 0-1.7-.3-1.9-1.2-.6zM245.5 414c.3.5.8 1 1.1 1 .2 0 .4-.5.4-1 0-.6-.5-1-1.1-1-.5 0-.7.4-.4 1z"/>
    <path
        d="M251.5 414.8c.3.7 0 1-.5.7-.6-.3-1 0-1 .7 0 .9-.3.9-.8.2-.4-.6-2.1-1.1-3.9-1.1-2.5.1-3.3.6-3.8 2.4-.3 1.3-1 2.3-1.6 2.3-.6 0-.7-.5-.3-1.1.3-.6-.5-.3-2 .6-2 1.3-2.6 1.4-2.6.4 0-.8-1.2-.1-2.6 1.5-2.2 2.3-2.4 3-1.3 3.8 1.1.8 1 .9-.4.4-1-.3-2 0-2.3.9-.3.8-1.2 1.1-2.2.7-1.5-.5-1.6-.4-.2 1.3.8 1 1 1.6.3 1.2-.6-.4-1.4-.3-1.8.3-.4.6-1.1.8-1.6.5-.5-.4-1 .6-1 2.2-.1 1.5-.3 3.5-.4 4.3-.1.8-.3 2-.4 2.7 0 .7-.8 1-1.8.6-1.2-.5-1.5-.2-1 1 .7 1.9-.8 3.3-1.9 1.6-.4-.8-.3-.9.4-.5 1.6 1 1.5.1 0-1.2-1-.8-1.3.3-1.4 4.8-.2 4.7.2 6 1.5 6.3 1.4.4 1.4.5-.1.6-1.9.1-2.3 1.2-1.1 2.5 1.1 1 1.2 3.7.2 3-.5-.3-.9.1-.9 1 0 .8.6 1.7 1.3 1.9 1 .4 1 .6 0 .6-.7.1-1.3.8-1.3 1.6s.6 1.5 1.3 1.5c.8 0 .9.2.1.8-.7.4-1.2 2-1.2 3.6 0 1.9.3 2.4.9 1.5.8-1.3 1.3-.5 1 1.5-.1.5.6.3 1.5-.5 1.6-1.3 1.6-1.2.4 1.1-1.3 2.4-1.2 2.5.7.7 1.9-1.7 2-1.6 1.8 1.3-.1 2.3.2 3 1.4 2.9 3.7-.3 4.4 0 3.1 1.6-1 1.3-.9 1.5 1.1 1.6 1.3.1 2.9 0 3.4-.1.6-.1.7.2.3.5-.4.4-.2 1.7.4 2.9.7 1.1 1.1 2.4 1 2.8-.2.8 2.3 1.2 4.2.9.5-.1.4.4-.3 1.2-.9 1.2-.8 1.6.4 2.1.9.3 1.3.2 1-.3-.3-.5-.1-1.2.4-1.5.4-.3.8.2.8 1.2 0 3.4.3 4.2 1.7 4.2.8 0 1.7.8 2 1.7.5 1.6 2 1.8 13.8 1.6 17.6-.2 16.8-.1 16.8-1.8 0-.8.9-1.5 1.9-1.5 1.1 0 2.2-.4 2.5-.9.4-.5-.2-.7-1.3-.4-1 .3-2.2 0-2.5-.5-.4-.6.3-.8 1.6-.4 1.6.4 1.9.2 1.3-.9-.6-1.1-.5-1.1.5-.2.9.8 1.9.9 3.2.2 1.3-.7 1.8-.6 1.8.3.1.8.5.7 1.4-.4.7-1 1.6-1.5 2-1.1.4.4.4-.1 0-1.1-.5-1.3-.4-1.7.4-1.2.6.3 1.3.2 1.7-.4.4-.6 1.1-.7 1.7-.4.7.4.8.2.4-.5-.4-.6-1.2-.9-1.7-.6-.5.4-.9.2-.9-.3s1.5-1.3 3.3-1.9c1.7-.5 2.4-.9 1.5-.7-2.5.3-2.3-1.3.2-2.1 1.4-.4 2-1.5 1.9-3.3-.1-4 .7-6.7 1.9-6.8.7-.1 1.4-.3 1.7-.4.3-.1 1.1-.3 1.7-.4.8-.1 1.3-1.7 1.3-4.1 0-4.4-1.2-6.8-2.8-5.8-.6.3-.7.1-.3-.6.4-.6 1.2-.9 1.7-.6.5.4 1-.2 1-1.2.2-2.5.1-7.7-.1-8.3-.6-1.5-.4-3.6.5-4.2.6-.5.6-.8-.1-.8-.6 0-1-1.1-.9-2.5.2-1.4-.1-2.3-.6-1.9-.5.3-.7 1-.4 1.5.4.5.1.9-.4.9-.6 0-1.1-.9-1.1-1.9 0-1.1-.5-2.3-1.2-2.7-.7-.4-.8-.3-.4.4s.3 1.2-.2 1.2c-1.6 0-2.2-1.3-1.1-2.7.6-.7.8-1.3.3-1.3s-1-1.1-1-2.5c-.2-2.3 0-2.4 1.5-1.3 1.4 1.2 1.5 1.1.2-.5-.7-.9-2.4-1.7-3.7-1.7-2.4 0-3.5-1.9-1.1-2.1.6 0-.2-.5-2-1-2.2-.7-3.1-1.4-2.7-2.4.7-1.8-1.2-2-2-.3-.4.7-.4.3-.2-1 .5-2.6-2.2-4.6-4.4-3.2-1.1.7-1.9.3-2.8-1.3-.7-1.2-1.1-1.5-.9-.6.3.9-.1 1.6-.9 1.6s-1.4-.8-1.4-1.8c0-1.9-2.6-3.3-3.5-1.8-.4.5-1.2.6-1.8.2-2-1.3-4.1-1.2-4.9 0-.5.8-.8.9-.8.1s-1.6-1-4.7-.8c-3.2.3-4.3.1-3.4-.5.8-.5 2.3-.8 3.3-.6 1 .2 1.8 0 1.8-.4s-1.8-.8-4-.7c-2.9.1-3.9.5-3.5 1.4zM299 454c0 .5-.5 1-1.1 1-.5 0-.7-.5-.4-1 .3-.6.8-1 1.1-1 .2 0 .4.4.4 1z"/>
    <path
        d="M260.6 413.8c-.3.5.1.9.9.9s1.5-.4 1.5-.9c0-.4-.4-.8-.9-.8-.6 0-1.2.4-1.5.8zM264.6 414.2c.3.5.9.7 1.2.4.3-.3 1.1-.1 1.8.5.8.6 1.4.7 1.8 0 .4-.6 1.4-.8 2.4-.5 1.3.4 1.2.3-.2-.7-1.5-.9-2.1-.9-2.4-.1-.2.7-.9.9-1.5.5-1.8-1.1-3.8-1.2-3.1-.1zM130 416c0 .5.5 1 1 1 .6 0 1-.5 1-1 0-.6-.4-1-1-1-.5 0-1 .4-1 1zM227.6 424.7c-.6 1.4-.5 1.5.5.6.7-.7 1-1.5.7-1.8-.3-.3-.9.2-1.2 1.2zM143 435.4c0 .2.7.7 1.6 1 .8.3 1.2.2.9-.4-.6-1-2.5-1.4-2.5-.6zM219 438c0 .5.5 1 1.1 1 .5 0 .7-.5.4-1-.3-.6-.8-1-1.1-1-.2 0-.4.4-.4 1zM325 446.1c0 .5.5.7 1 .4.6-.3 1-.8 1-1.1 0-.2-.4-.4-1-.4-.5 0-1 .5-1 1.1zM295.3 473.5c0 .8.4 1.5.9 1.5.4 0 .8-.4.8-.9 0-.6-.4-1.2-.8-1.5-.5-.3-.9.1-.9.9zM226.6 483.9c.9.9 3.4.9 3.4.1 0-.5-.9-.8-2-.7-1 .1-1.7.3-1.4.6zM279 493.8c0 .4 1 .9 2.2.9 1.8.2 2 0 .8-.7-1.8-1.2-3-1.3-3-.2z"/>
</svg>
